<?xml version="1.0" encoding="UTF-8"?>
<svg version="1.1" xmlns="http://www.w3.org/2000/svg" width="512" height="512">
<path d="M0 0 C1.91613452 -0.00691859 3.83226108 -0.01645137 5.74837106 -0.02836347 C10.99895016 -0.05336895 16.24887342 -0.04105013 21.49945462 -0.02244616 C27.16757874 -0.00885968 32.83559082 -0.02983023 38.50369263 -0.04632568 C49.60135252 -0.07299851 60.69876887 -0.06724596 71.79643828 -0.04984984 C80.81549901 -0.03629748 89.8344915 -0.03446272 98.85355949 -0.04099274 C100.77928081 -0.04237183 100.77928081 -0.04237183 102.74390559 -0.04377879 C105.35196668 -0.04569715 107.96002776 -0.04764243 110.56808882 -0.04961434 C134.32367647 -0.06623378 158.07911663 -0.04900187 181.83468081 -0.01755876 C203.51351045 0.01091737 225.19212862 0.00836329 246.87095642 -0.02032471 C271.23781071 -0.05246218 295.6045211 -0.06507684 319.97139829 -0.04665112 C322.56953933 -0.04473983 325.16768038 -0.04285361 327.76582146 -0.04099274 C329.04415233 -0.04006708 330.32248321 -0.03914143 331.63955139 -0.03818773 C340.64838197 -0.03300693 349.65713753 -0.041752 358.6659565 -0.05587006 C369.64379507 -0.07269574 380.62137622 -0.06814899 391.5991853 -0.03618559 C397.20037588 -0.02041452 402.80113724 -0.01424596 408.40232468 -0.03408051 C413.53021913 -0.05196449 418.65728665 -0.04212694 423.78510612 -0.01021519 C425.6395901 -0.00351518 427.494144 -0.00691796 429.34858299 -0.02146992 C446.09960615 -0.14282977 446.09960615 -0.14282977 452.71843046 5.25493503 C454.57539899 7.09072475 456.27550093 8.84510219 457.74278259 11.01190186 C458.43887634 12.00963623 458.43887634 12.00963623 459.14903259 13.02752686 C461.51159008 16.77386801 461.38457331 19.91993974 461.37421036 24.24049091 C461.37626299 25.02470601 461.37831563 25.80892111 461.38043046 26.6169003 C461.38613262 29.27261549 461.38463927 31.92827935 461.38322449 34.58399963 C461.38580628 36.49607026 461.38881892 38.40814035 461.39222789 40.32020968 C461.40032294 45.59637086 461.40208885 50.87251845 461.40282536 56.1486851 C461.40467156 61.83046564 461.41221668 67.51223906 461.41896057 73.1940155 C461.43256206 85.6277196 461.4385714 98.06142048 461.44297123 110.49513078 C461.44573051 118.25322618 461.44996728 126.01132034 461.4544754 133.7694149 C461.4666703 155.23339823 461.47700467 176.69737991 461.48035049 198.16136646 C461.48057213 199.54989532 461.48079391 200.93842418 461.48101585 202.32695303 C461.48123649 203.71887462 461.48145697 205.11079621 461.48167729 206.50271779 C461.48211985 209.29524855 461.48256697 212.0877793 461.48301697 214.88031006 C461.48318105 215.91889122 461.48318105 215.91889122 461.48334846 216.97845382 C461.48698002 239.43499328 461.50290328 261.89150047 461.52620733 284.34802757 C461.55078919 308.07919082 461.56451583 331.81033191 461.56571841 355.54150885 C461.56663656 368.48218181 461.57242398 381.42281254 461.59053802 394.36347389 C461.60590543 405.3810663 461.61107939 416.39860341 461.60279992 427.41620449 C461.59888151 433.04104461 461.59988086 438.66577327 461.61385727 444.29059982 C461.626525 449.43563964 461.6254618 454.58048345 461.61326656 459.72552272 C461.61129713 461.59095191 461.61444491 463.45639464 461.62311092 465.32180474 C461.63411639 467.85004054 461.62677778 470.37757389 461.61471939 472.90578938 C461.62231458 473.6364989 461.62990978 474.36720842 461.63773513 475.12006065 C461.59266037 479.47307568 460.9817592 482.32655229 458.24278259 485.76190186 C457.58278259 485.76190186 456.92278259 485.76190186 456.24278259 485.76190186 C455.90247009 486.59721436 455.90247009 486.59721436 455.55528259 487.44940186 C452.45467459 492.91237786 447.73282782 496.01687924 442.24278259 498.76190186 C441.58278259 498.43190186 440.92278259 498.10190186 440.24278259 497.76190186 C437.76124733 497.66982494 435.30821641 497.63905662 432.82666302 497.65282059 C431.66047062 497.65333679 431.66047062 497.65333679 430.47071877 497.65386343 C427.83796263 497.65624913 425.20527984 497.66583267 422.57254028 497.67529297 C420.67697015 497.67843425 418.78139922 497.68112257 416.88582784 497.68339419 C412.75019801 497.68932516 408.61459139 497.69846295 404.47897339 497.70998764 C397.75134896 497.72871518 391.02372243 497.74061493 384.29608154 497.75161743 C375.79658943 497.76602946 367.29710425 497.78231179 358.79761992 497.80075285 C342.09936143 497.83695056 325.40110552 497.86086992 308.70281982 497.88024902 C306.07669057 497.88335959 303.45056132 497.88647726 300.82443208 497.88960195 C296.84408394 497.8943279 292.8637358 497.89904598 288.88338762 497.90373434 C273.86670944 497.9214448 258.85003328 497.94052989 243.83335876 497.96112061 C242.80374666 497.96252563 242.80374666 497.96252563 241.75333431 497.96395903 C219.49078828 497.99443966 197.22829161 498.03862554 174.96578228 498.08885488 C151.43953987 498.14183944 127.91334578 498.17612769 104.38704377 498.19167399 C90.29119281 498.20165867 76.19553844 498.22709217 62.09975515 498.2721307 C52.44420873 498.30163249 42.78874974 498.31299023 33.13315912 498.30989555 C27.55683725 498.30867369 21.98083772 498.31573066 16.40458298 498.34447098 C11.30385685 498.37059312 6.20365602 498.37385504 1.10289053 498.35860905 C-0.74640021 498.35718452 -2.59572045 498.36430427 -4.44493959 498.38063899 C-6.951803 498.40156371 -9.45672854 498.39188558 -11.96357441 498.37434769 C-12.68786655 498.3877686 -13.41215869 498.40118952 -14.15839908 498.41501713 C-18.07844241 498.35078301 -19.57416403 497.92378179 -22.55682009 495.28612399 C-23.28295121 494.45313069 -24.00908232 493.62013738 -24.75721741 492.76190186 C-25.74721741 492.43190186 -26.73721741 492.10190186 -27.75721741 491.76190186 C-31.93073681 488.00573439 -35.41699303 484.52095943 -36.12356758 478.79097652 C-36.11950338 477.6818871 -36.11543919 476.57279768 -36.11125183 475.43009949 C-36.11393066 474.14998993 -36.1166095 472.86988037 -36.11936951 471.55097961 C-36.10715397 470.13747936 -36.09466288 468.72398147 -36.08192444 467.31048584 C-36.07943871 465.81419024 -36.07829409 464.3178919 -36.0783844 462.82159424 C-36.0756751 459.58921976 -36.06342034 456.3570699 -36.04384232 453.12475395 C-36.01248763 447.93471581 -36.00248625 442.74476122 -35.99497986 437.55464172 C-35.98044598 429.25279707 -35.95156177 420.95107216 -35.91673267 412.64929014 C-35.84839957 396.28839105 -35.80731444 379.92741243 -35.77128506 363.56641436 C-35.76503196 360.88387727 -35.7578031 358.20134429 -35.75035858 355.51881027 C-35.67672476 328.05559979 -35.89263554 300.60586909 -36.44118977 273.14784956 C-36.48199848 271.08679401 -36.52081579 269.02571054 -36.55902481 266.96460533 C-36.60600342 264.48135839 -36.65762643 261.99819302 -36.71487045 259.51516151 C-36.73536076 258.42640409 -36.75585106 257.33764668 -36.77696228 256.21589661 C-36.79732481 255.27668397 -36.81768734 254.33747133 -36.83866692 253.36979771 C-36.75721741 250.76190186 -36.75721741 250.76190186 -36.26349926 248.50196457 C-35.52229524 244.49047279 -35.62343395 240.53771163 -35.63696289 236.46690369 C-35.63610847 235.52749807 -35.63525404 234.58809246 -35.63437372 233.62022001 C-35.63272603 230.47105747 -35.63822871 227.32194816 -35.64369202 224.17279053 C-35.64397407 221.91592409 -35.6438158 219.65905755 -35.64324951 217.40219116 C-35.64296224 211.27250943 -35.64884775 205.1428472 -35.65582347 199.01317 C-35.66206857 192.60831409 -35.66266172 186.20345774 -35.66384888 179.79859924 C-35.66660529 169.04751178 -35.67285438 158.29643285 -35.68177795 147.54534912 C-35.69095909 136.47243282 -35.6980365 125.39951846 -35.70228577 114.32659912 C-35.70267985 113.30253657 -35.70267985 113.30253657 -35.7030819 112.25778588 C-35.70438695 108.83278675 -35.70565065 105.4077876 -35.7068938 101.98278844 C-35.71725795 73.57582131 -35.73494331 45.16886197 -35.75721741 16.76190186 C-35.09721741 16.76190186 -34.43721741 16.76190186 -33.75721741 16.76190186 C-32.68196547 14.10961373 -31.66265589 11.47821731 -30.75721741 8.76190186 C-30.09721741 8.76190186 -29.43721741 8.76190186 -28.75721741 8.76190186 C-28.75721741 8.10190186 -28.75721741 7.44190186 -28.75721741 6.76190186 C-20.66896306 -1.07736533 -10.41524804 -0.08183647 0 0 Z " fill="#9B2D54" transform="translate(44.75721740722656,6.23809814453125)"/>
<path d="M0 0 C91.41 0 182.82 0 277 0 C277 90.42 277 180.84 277 274 C185.59 274 94.18 274 0 274 C0 183.58 0 93.16 0 0 Z " fill="#FDFDFD" transform="translate(118,150)"/>
<path d="M0 0 C5.91548168 0.00231068 11.83096049 0.00255775 17.7464425 0.00148369 C19.02659388 0.00125384 19.02659388 0.00125384 20.33260691 0.00101934 C22.06767601 0.00069954 23.8027451 0.00037532 25.5378142 0.00004675 C41.61603396 -0.00277176 57.69424791 0.0004254 73.77246672 0.00584712 C87.55827927 0.0103511 101.34408345 0.00950302 115.12989587 0.00492836 C131.23943725 -0.00041506 147.34897368 -0.00253803 163.45851582 0.00054062 C165.17123129 0.00085913 166.88394676 0.0011735 168.59666222 0.00148369 C169.4389413 0.00163796 170.28122037 0.00179224 171.14902306 0.00195119 C177.07975182 0.00281415 183.01047741 0.00135904 188.94120568 -0.00099587 C196.13255937 -0.00378967 203.32390213 -0.0030629 210.51525456 0.00228488 C214.18145755 0.00492154 217.84764227 0.00592697 221.51384515 0.00263572 C225.47612317 -0.00086816 229.43837089 0.00329942 233.40064782 0.00831581 C235.15543371 0.00496973 235.15543371 0.00496973 236.94566983 0.00155605 C238.52310798 0.00546767 238.52310798 0.00546767 240.13241357 0.00945831 C241.50456127 0.00970184 241.50456127 0.00970184 242.90442914 0.00995029 C244.95997399 0.13529945 244.95997399 0.13529945 245.95997399 1.13529945 C246.06943894 2.9347753 246.10906382 4.7385433 246.1211068 6.54130531 C246.13071435 7.69597801 246.14032189 8.85065071 246.15022057 10.04031349 C246.15659539 11.9261792 246.15659539 11.9261792 246.16309899 13.8501432 C246.16879906 15.13135551 246.17449914 16.41256782 246.18037194 17.73260475 C246.19088933 20.44879024 246.19672724 23.16494606 246.20020837 25.88114906 C246.20569694 29.36629218 246.22972894 32.85104533 246.25818032 36.33606602 C246.28125215 39.6532516 246.28325268 42.97038146 246.28809899 46.2876432 C246.30044579 47.54286278 246.31279259 48.79808235 246.32551354 50.09133888 C246.32251244 51.24916374 246.31951134 52.4069886 246.3164193 53.59989906 C246.32006493 54.6228054 246.32371056 55.64571174 246.32746667 56.69961525 C246.20619408 57.50339103 246.0849215 58.30716682 245.95997399 59.13529945 C242.23456737 61.61890386 240.32934426 61.36688615 235.88575524 61.33061195 C235.20192269 61.32778206 234.51809014 61.32495216 233.81353539 61.32203651 C231.63300234 61.31085629 229.45288254 61.28575636 227.27247399 61.26029945 C225.79266222 61.25026683 224.312844 61.24114147 222.83302087 61.2329557 C219.20853799 61.21092426 215.58429633 61.17640947 211.95997399 61.13529945 C211.96073343 61.72451583 211.96149287 62.3137322 211.96227533 62.92080361 C212.00700009 97.81751545 212.04133122 132.71422236 212.06210465 167.61095687 C212.06460616 171.79802619 212.0671948 175.98509545 212.06983727 180.17216469 C212.0706242 181.42255657 212.0706242 181.42255657 212.07142703 182.6982089 C212.08013732 196.20799824 212.09591071 209.71777062 212.11427958 223.2275499 C212.13296131 237.08264536 212.14408705 250.93773193 212.14815098 264.79283947 C212.15089963 273.34697323 212.15959107 281.90105905 212.17580692 290.45517805 C212.18635251 296.31551309 212.18958014 302.17582323 212.18697675 308.03616707 C212.18569166 311.420792 212.18770615 314.80533296 212.19838494 318.18994308 C212.20826917 321.85423581 212.20596676 325.51831986 212.20048302 329.18261696 C212.20922155 330.79787103 212.20922155 330.79787103 212.21813661 332.4457565 C212.21415451 333.42359701 212.21017241 334.40143752 212.20606965 335.40890957 C212.20682909 336.25530618 212.20758853 337.1017028 212.20837098 337.9737478 C211.95997399 340.13529945 211.95997399 340.13529945 209.95997399 343.13529945 C203.90947678 344.54880653 197.68548751 344.27520246 191.50176781 344.26228309 C190.35380331 344.26384308 189.20583881 344.26540308 188.0230875 344.26701034 C184.18001509 344.2709961 180.33698224 344.26784009 176.49390954 344.26469398 C173.73753562 344.265499 170.98116338 344.26779342 168.22479028 344.27000404 C161.5187202 344.27444647 154.81266134 344.27349226 148.10659083 344.2705914 C142.65864243 344.26833232 137.21069716 344.26802704 131.76274842 344.26911522 C130.59938551 344.26934507 130.59938551 344.26934507 129.41252032 344.26957956 C127.83698252 344.26989928 126.26144472 344.2702235 124.68590692 344.27055215 C109.9202518 344.27340222 95.15460288 344.27012683 80.38894878 344.26475178 C67.71104197 344.26027975 55.03314431 344.26106388 42.35523766 344.26567055 C27.6343856 344.27101703 12.91353898 344.27313223 -1.80731392 344.27005828 C-3.37550237 344.26973973 -4.94369082 344.26942536 -6.51187927 344.26911522 C-7.2834838 344.26896094 -8.05508834 344.26880667 -8.85007483 344.26864772 C-14.29593932 344.26778311 -19.74180037 344.26924413 -25.18766433 344.27159477 C-31.81749968 344.27439359 -38.44732319 344.27365258 -45.07715718 344.26831403 C-48.46168058 344.26567881 -51.8461842 344.264669 -55.23070747 344.26796318 C-58.89273772 344.27067471 -62.55471144 344.26729354 -66.21673805 344.26228309 C-67.29560305 344.26451382 -68.37446805 344.26674454 -69.48602593 344.26904286 C-70.4610419 344.26643511 -71.43605786 344.26382736 -72.44061977 344.26114059 C-73.28663936 344.26097824 -74.13265895 344.26081589 -75.0043155 344.26064862 C-77.04002601 344.13529945 -77.04002601 344.13529945 -79.04002601 343.13529945 C-79.92925714 327.03315191 -80.17892072 310.98680306 -80.1535514 294.86235023 C-80.15326857 292.30741352 -80.15342912 289.75247672 -80.1539939 287.19754005 C-80.15421964 281.74618517 -80.15143345 276.29484586 -80.14575607 270.84349418 C-80.13755343 262.9622112 -80.13501698 255.08093397 -80.13376807 247.19964718 C-80.13159116 234.4060592 -80.12496835 221.61247768 -80.11546546 208.8188932 C-80.10625588 196.40710967 -80.09919249 183.99532791 -80.09495765 171.58354164 C-80.09469493 170.8156897 -80.0944322 170.04783776 -80.09416152 169.25671759 C-80.09285628 165.4037971 -80.09159262 161.5508766 -80.09034961 157.69795609 C-80.08001944 125.84373233 -80.06215919 93.98951726 -80.04002601 62.13529945 C-90.60002601 62.13529945 -101.16002601 62.13529945 -112.04002601 62.13529945 C-112.04002601 61.47529945 -112.04002601 60.81529945 -112.04002601 60.13529945 C-113.03002601 59.80529945 -114.02002601 59.47529945 -115.04002601 59.13529945 C-115.06317383 51.86835472 -115.08095357 44.60141791 -115.09183818 37.33444382 C-115.09706166 33.96026919 -115.10414962 30.58611974 -115.11546546 27.21195961 C-115.12755037 23.33483686 -115.13325864 19.45775005 -115.13768226 15.58061195 C-115.14284354 14.36600288 -115.14800483 13.15139381 -115.15332252 11.89997841 C-115.15343581 10.21846184 -115.15343581 10.21846184 -115.1535514 8.50297523 C-115.15577201 7.51258247 -115.15799262 6.52218971 -115.16028053 5.50178505 C-115.04002601 3.13529945 -115.04002601 3.13529945 -114.04002601 1.13529945 C-76.02424835 0.1164548 -38.02589704 -0.0152753 0 0 Z M-73.04002601 62.13529945 C-73.04002601 152.55529945 -73.04002601 242.97529945 -73.04002601 336.13529945 C18.36997399 336.13529945 109.77997399 336.13529945 203.95997399 336.13529945 C203.95997399 245.71529945 203.95997399 155.29529945 203.95997399 62.13529945 C112.54997399 62.13529945 21.13997399 62.13529945 -73.04002601 62.13529945 Z " fill="#090507" transform="translate(191.0400260090828,87.86470054835081)"/>
<path d="M0 0 C41.91 0 83.82 0 127 0 C127 0.66 127 1.32 127 2 C127.66 2 128.32 2 129 2 C129.04629062 13.6827136 129.08185254 25.36540547 129.10362434 37.04819202 C129.11407242 42.47267198 129.1282503 47.8970893 129.15087891 53.3215332 C129.17257077 58.5540243 129.18456091 63.78645507 129.18975449 69.01898766 C129.19345682 71.01772703 129.20068632 73.01646301 129.21146011 75.01517677 C129.2259264 77.80942612 129.22797998 80.60342446 129.22705078 83.39770508 C129.23424133 84.22848572 129.24143188 85.05926636 129.24884033 85.91522217 C129.23480165 89.80308889 129.20727666 91.68908501 127 95 C124.77049828 95.36914349 124.77049828 95.36914349 121.93807983 95.36076355 C120.86673294 95.36488754 119.79538605 95.36901154 118.6915741 95.3732605 C116.92104424 95.35708176 116.92104424 95.35708176 115.11474609 95.34057617 C113.87575058 95.34101425 112.63675507 95.34145233 111.36021423 95.34190369 C107.95733587 95.3401685 104.55499973 95.32509646 101.15221739 95.30418181 C97.59812731 95.28546112 94.04403045 95.28366822 90.48989868 95.28010559 C83.75731993 95.27077152 77.02488687 95.24613946 70.29237235 95.21605712 C62.62864712 95.18255535 54.96491502 95.16603776 47.30113482 95.15097082 C31.53400543 95.11959098 15.76702148 95.06680419 0 95 C-2.28879558 90.89467704 -2.28231971 87.23127761 -2.25878906 82.62304688 C-2.2622937 81.7803273 -2.26579834 80.93760773 -2.26940918 80.0693512 C-2.27820643 77.28573349 -2.27238441 74.50237026 -2.265625 71.71875 C-2.26697223 69.78348746 -2.26891324 67.84822525 -2.27142334 65.91296387 C-2.27437188 61.85779598 -2.27008559 57.80271623 -2.26074219 53.74755859 C-2.24934784 48.54878474 -2.25590874 43.35021739 -2.26788712 38.15145111 C-2.27511297 34.1554814 -2.27281444 30.15956066 -2.26763153 26.16358948 C-2.26629704 24.24662756 -2.26793573 22.3296612 -2.27259064 20.41270447 C-2.27766773 17.73400078 -2.26992895 15.05563187 -2.25878906 12.37695312 C-2.26283752 11.58410416 -2.26688599 10.79125519 -2.27105713 9.97438049 C-2.23926521 5.84935067 -1.89461208 3.78922416 0 0 Z " fill="#030203" transform="translate(193,239)"/>
<path d="M0 0 C1.91613452 -0.00691859 3.83226108 -0.01645137 5.74837106 -0.02836347 C10.99895016 -0.05336895 16.24887342 -0.04105013 21.49945462 -0.02244616 C27.16757874 -0.00885968 32.83559082 -0.02983023 38.50369263 -0.04632568 C49.60135252 -0.07299851 60.69876887 -0.06724596 71.79643828 -0.04984984 C80.81549901 -0.03629748 89.8344915 -0.03446272 98.85355949 -0.04099274 C100.77928081 -0.04237183 100.77928081 -0.04237183 102.74390559 -0.04377879 C105.35196668 -0.04569715 107.96002776 -0.04764243 110.56808882 -0.04961434 C134.32367647 -0.06623378 158.07911663 -0.04900187 181.83468081 -0.01755876 C203.51351045 0.01091737 225.19212862 0.00836329 246.87095642 -0.02032471 C271.23781071 -0.05246218 295.6045211 -0.06507684 319.97139829 -0.04665112 C322.56953933 -0.04473983 325.16768038 -0.04285361 327.76582146 -0.04099274 C329.04415233 -0.04006708 330.32248321 -0.03914143 331.63955139 -0.03818773 C340.64838197 -0.03300693 349.65713753 -0.041752 358.6659565 -0.05587006 C369.64379507 -0.07269574 380.62137622 -0.06814899 391.5991853 -0.03618559 C397.20037588 -0.02041452 402.80113724 -0.01424596 408.40232468 -0.03408051 C413.53021913 -0.05196449 418.65728665 -0.04212694 423.78510612 -0.01021519 C425.6395901 -0.00351518 427.494144 -0.00691796 429.34858299 -0.02146992 C446.09960615 -0.14282977 446.09960615 -0.14282977 452.71843046 5.25493503 C454.57539899 7.09072475 456.27550093 8.84510219 457.74278259 11.01190186 C458.43887634 12.00963623 458.43887634 12.00963623 459.14903259 13.02752686 C461.51159008 16.77386801 461.38457331 19.91993974 461.37421036 24.24049091 C461.37626299 25.02470601 461.37831563 25.80892111 461.38043046 26.6169003 C461.38613262 29.27261549 461.38463927 31.92827935 461.38322449 34.58399963 C461.38580628 36.49607026 461.38881892 38.40814035 461.39222789 40.32020968 C461.40032294 45.59637086 461.40208885 50.87251845 461.40282536 56.1486851 C461.40467156 61.83046564 461.41221668 67.51223906 461.41896057 73.1940155 C461.43256206 85.6277196 461.4385714 98.06142048 461.44297123 110.49513078 C461.44573051 118.25322618 461.44996728 126.01132034 461.4544754 133.7694149 C461.4666703 155.23339823 461.47700467 176.69737991 461.48035049 198.16136646 C461.48057213 199.54989532 461.48079391 200.93842418 461.48101585 202.32695303 C461.48123649 203.71887462 461.48145697 205.11079621 461.48167729 206.50271779 C461.48211985 209.29524855 461.48256697 212.0877793 461.48301697 214.88031006 C461.48318105 215.91889122 461.48318105 215.91889122 461.48334846 216.97845382 C461.48698002 239.43499328 461.50290328 261.89150047 461.52620733 284.34802757 C461.55078919 308.07919082 461.56451583 331.81033191 461.56571841 355.54150885 C461.56663656 368.48218181 461.57242398 381.42281254 461.59053802 394.36347389 C461.60590543 405.3810663 461.61107939 416.39860341 461.60279992 427.41620449 C461.59888151 433.04104461 461.59988086 438.66577327 461.61385727 444.29059982 C461.626525 449.43563964 461.6254618 454.58048345 461.61326656 459.72552272 C461.61129713 461.59095191 461.61444491 463.45639464 461.62311092 465.32180474 C461.63411639 467.85004054 461.62677778 470.37757389 461.61471939 472.90578938 C461.62231458 473.6364989 461.62990978 474.36720842 461.63773513 475.12006065 C461.59266037 479.47307568 460.9817592 482.32655229 458.24278259 485.76190186 C457.58278259 485.76190186 456.92278259 485.76190186 456.24278259 485.76190186 C455.90247009 486.59721436 455.90247009 486.59721436 455.55528259 487.44940186 C452.45467459 492.91237786 447.73282782 496.01687924 442.24278259 498.76190186 C441.58278259 498.43190186 440.92278259 498.10190186 440.24278259 497.76190186 C437.76124733 497.66982494 435.30821641 497.63905662 432.82666302 497.65282059 C431.66047062 497.65333679 431.66047062 497.65333679 430.47071877 497.65386343 C427.83796263 497.65624913 425.20527984 497.66583267 422.57254028 497.67529297 C420.67697015 497.67843425 418.78139922 497.68112257 416.88582784 497.68339419 C412.75019801 497.68932516 408.61459139 497.69846295 404.47897339 497.70998764 C397.75134896 497.72871518 391.02372243 497.74061493 384.29608154 497.75161743 C375.79658943 497.76602946 367.29710425 497.78231179 358.79761992 497.80075285 C342.09936143 497.83695056 325.40110552 497.86086992 308.70281982 497.88024902 C306.07669057 497.88335959 303.45056132 497.88647726 300.82443208 497.88960195 C296.84408394 497.8943279 292.8637358 497.89904598 288.88338762 497.90373434 C273.86670944 497.9214448 258.85003328 497.94052989 243.83335876 497.96112061 C242.80374666 497.96252563 242.80374666 497.96252563 241.75333431 497.96395903 C219.49078828 497.99443966 197.22829161 498.03862554 174.96578228 498.08885488 C151.43953987 498.14183944 127.91334578 498.17612769 104.38704377 498.19167399 C90.29119281 498.20165867 76.19553844 498.22709217 62.09975515 498.2721307 C52.44420873 498.30163249 42.78874974 498.31299023 33.13315912 498.30989555 C27.55683725 498.30867369 21.98083772 498.31573066 16.40458298 498.34447098 C11.30385685 498.37059312 6.20365602 498.37385504 1.10289053 498.35860905 C-0.74640021 498.35718452 -2.59572045 498.36430427 -4.44493959 498.38063899 C-6.951803 498.40156371 -9.45672854 498.39188558 -11.96357441 498.37434769 C-12.68786655 498.3877686 -13.41215869 498.40118952 -14.15839908 498.41501713 C-18.07844241 498.35078301 -19.57416403 497.92378179 -22.55682009 495.28612399 C-23.28295121 494.45313069 -24.00908232 493.62013738 -24.75721741 492.76190186 C-25.74721741 492.43190186 -26.73721741 492.10190186 -27.75721741 491.76190186 C-31.93073681 488.00573439 -35.41699303 484.52095943 -36.12356758 478.79097652 C-36.11950338 477.6818871 -36.11543919 476.57279768 -36.11125183 475.43009949 C-36.11393066 474.14998993 -36.1166095 472.86988037 -36.11936951 471.55097961 C-36.10715397 470.13747936 -36.09466288 468.72398147 -36.08192444 467.31048584 C-36.07943871 465.81419024 -36.07829409 464.3178919 -36.0783844 462.82159424 C-36.0756751 459.58921976 -36.06342034 456.3570699 -36.04384232 453.12475395 C-36.01248763 447.93471581 -36.00248625 442.74476122 -35.99497986 437.55464172 C-35.98044598 429.25279707 -35.95156177 420.95107216 -35.91673267 412.64929014 C-35.84839957 396.28839105 -35.80731444 379.92741243 -35.77128506 363.56641436 C-35.76503196 360.88387727 -35.7578031 358.20134429 -35.75035858 355.51881027 C-35.67672476 328.05559979 -35.89263554 300.60586909 -36.44118977 273.14784956 C-36.48199848 271.08679401 -36.52081579 269.02571054 -36.55902481 266.96460533 C-36.60600342 264.48135839 -36.65762643 261.99819302 -36.71487045 259.51516151 C-36.73536076 258.42640409 -36.75585106 257.33764668 -36.77696228 256.21589661 C-36.79732481 255.27668397 -36.81768734 254.33747133 -36.83866692 253.36979771 C-36.75721741 250.76190186 -36.75721741 250.76190186 -36.26349926 248.50196457 C-35.52229524 244.49047279 -35.62343395 240.53771163 -35.63696289 236.46690369 C-35.63610847 235.52749807 -35.63525404 234.58809246 -35.63437372 233.62022001 C-35.63272603 230.47105747 -35.63822871 227.32194816 -35.64369202 224.17279053 C-35.64397407 221.91592409 -35.6438158 219.65905755 -35.64324951 217.40219116 C-35.64296224 211.27250943 -35.64884775 205.1428472 -35.65582347 199.01317 C-35.66206857 192.60831409 -35.66266172 186.20345774 -35.66384888 179.79859924 C-35.66660529 169.04751178 -35.67285438 158.29643285 -35.68177795 147.54534912 C-35.69095909 136.47243282 -35.6980365 125.39951846 -35.70228577 114.32659912 C-35.70267985 113.30253657 -35.70267985 113.30253657 -35.7030819 112.25778588 C-35.70438695 108.83278675 -35.70565065 105.4077876 -35.7068938 101.98278844 C-35.71725795 73.57582131 -35.73494331 45.16886197 -35.75721741 16.76190186 C-35.09721741 16.76190186 -34.43721741 16.76190186 -33.75721741 16.76190186 C-32.68196547 14.10961373 -31.66265589 11.47821731 -30.75721741 8.76190186 C-30.09721741 8.76190186 -29.43721741 8.76190186 -28.75721741 8.76190186 C-28.75721741 8.10190186 -28.75721741 7.44190186 -28.75721741 6.76190186 C-20.66896306 -1.07736533 -10.41524804 -0.08183647 0 0 Z M-26.75721741 12.76190186 C-27.41721741 13.42190186 -28.07721741 14.08190186 -28.75721741 14.76190186 C-29.83283986 19.35709226 -29.90028348 23.90717185 -29.88864517 28.60215664 C-29.89069781 29.37688093 -29.89275044 30.15160522 -29.89486527 30.949806 C-29.90052557 33.54916953 -29.89907923 36.14847991 -29.8976593 38.74784851 C-29.90024347 40.62894758 -29.90325678 42.5100461 -29.9066627 44.39114386 C-29.91472947 49.56319387 -29.91652209 54.73523001 -29.91726017 59.90728557 C-29.91911122 65.484057 -29.92665869 71.06082123 -29.93339539 76.6375885 C-29.94697564 88.83152822 -29.95300258 101.02546464 -29.95740604 113.21941066 C-29.96016826 120.83080474 -29.96440551 128.44219755 -29.96891022 136.05359077 C-29.98110111 157.12141176 -29.99143705 178.18923191 -29.99478531 199.25705624 C-29.99500694 200.61893409 -29.99522872 201.98081194 -29.99545066 203.34268979 C-29.9956713 204.70784076 -29.99589178 206.07299174 -29.99611211 207.43814272 C-29.99655466 210.17684043 -29.99700178 212.91553813 -29.99745178 215.65423584 C-29.99756117 216.33327148 -29.99767056 217.01230711 -29.99778327 217.71191959 C-30.00141555 239.7397331 -30.01734352 261.76751373 -30.04064215 283.79531464 C-30.06523181 307.08630396 -30.07895096 330.37727193 -30.08015323 353.66827685 C-30.08107082 366.36415027 -30.08684468 379.05998063 -30.10497284 391.75584221 C-30.12035005 402.56320938 -30.12550827 413.37052016 -30.11723474 424.17789619 C-30.11332017 429.69364837 -30.11429723 435.20928689 -30.12829208 440.72502518 C-30.14098217 445.77255563 -30.13987666 450.81988646 -30.12770137 455.86741645 C-30.1257359 457.69507689 -30.1288618 459.52275123 -30.13754573 461.3503921 C-30.14859406 463.83244004 -30.14118138 466.31377795 -30.12915421 468.79580593 C-30.1367494 469.50728327 -30.14434459 470.21876061 -30.15216994 470.95179787 C-30.08632761 477.23515805 -28.51150816 481.73061782 -24.38221741 486.51190186 C-19.28866234 490.8778062 -15.66530654 492.20484999 -8.98033428 492.14780521 C-7.81029776 492.15569388 -7.81029776 492.15569388 -6.61662415 492.16374192 C-3.99305691 492.17773949 -1.36998718 492.1703215 1.25360107 492.16304016 C3.14962713 492.16864324 5.04564971 492.17554485 6.94166678 492.18363613 C12.15968869 492.20202508 17.37756666 492.20158529 22.5956136 492.198053 C28.22015755 492.19744186 33.8446549 492.21398882 39.46917725 492.22822571 C50.49158379 492.25316611 61.51394221 492.26139117 72.53637461 492.26306284 C81.49405131 492.26448733 90.4517121 492.27064659 99.40938377 492.28016472 C120.66245605 492.30228863 141.91551498 492.32073858 163.16859913 492.31916904 C163.84838302 492.31912231 164.52816691 492.31907557 165.22855032 492.31902742 C168.67402515 492.31877809 172.11949999 492.31848097 175.56497482 492.3181733 C176.59141127 492.31808354 176.59141127 492.31808354 177.63858382 492.31799198 C179.02238718 492.31787067 180.40619054 492.31774527 181.7899939 492.3176158 C203.32029738 492.31577749 224.85045913 492.33829738 246.38072205 492.3793335 C270.566593 492.42541207 294.75234113 492.4511944 318.93826693 492.44844383 C331.74545807 492.44744697 344.55248937 492.45572938 357.35964394 492.48797798 C368.26331413 492.51525717 379.16675203 492.52184852 390.07044152 492.50144971 C395.6350372 492.49163567 401.19918693 492.49154908 406.76374054 492.51750946 C411.85721417 492.54102798 416.94988635 492.53689089 422.04333981 492.51065706 C423.88652725 492.50603495 425.72977374 492.51156523 427.57289157 492.52823729 C439.75318135 492.91111645 439.75318135 492.91111645 450.13936824 487.24363846 C451.44187055 485.8024617 451.44187055 485.8024617 451.24278259 483.76190186 C452.23278259 483.43190186 453.22278259 483.10190186 454.24278259 482.76190186 C457.17028439 478.22882245 457.67194658 474.25357602 457.6175127 468.98970318 C457.62360379 467.83864577 457.62360379 467.83864577 457.62981793 466.66433468 C457.63977349 464.08979407 457.6283307 461.51579742 457.61700439 458.94126892 C457.61974466 457.07809275 457.62379645 455.21491812 457.62904805 453.35174733 C457.63964888 448.22910706 457.63149673 443.10664092 457.62029755 437.98400819 C457.61146599 432.46036476 457.61989611 426.93674438 457.62615967 421.4131012 C457.63565635 410.5903402 457.62903986 399.7676458 457.61689673 388.94488975 C457.60328447 376.34379042 457.60491395 363.74270701 457.60703006 351.1416022 C457.61031778 327.97760069 457.59739998 304.81363311 457.57718502 281.64964356 C457.55882211 260.50858729 457.55300102 239.36756485 457.55845642 218.22650146 C457.55880285 216.86947416 457.55914895 215.51244686 457.55949471 214.15541955 C457.55966571 213.48452865 457.5598367 212.81363775 457.56001288 212.12241682 C457.56086644 208.7451635 457.56169022 205.36791018 457.56248188 201.99065685 C457.5627175 200.991215 457.5627175 200.991215 457.56295788 199.97158241 C457.56694954 182.30357735 457.56142464 164.6355752 457.55297059 146.96757203 C457.55176329 144.43452569 457.5505573 141.90147934 457.54935265 139.368433 C457.54874911 138.12209149 457.54814557 136.87574999 457.54752374 135.59164056 C457.54364404 126.80730447 457.54403845 118.02297446 457.54593849 109.23863792 C457.54806079 98.53160787 457.54283385 87.82461033 457.52832494 77.11758944 C457.52108156 71.65427445 457.51700345 66.19100682 457.5215683 60.72768784 C457.52564598 55.72572565 457.5204755 50.72386121 457.50794222 45.72191385 C457.50501545 43.91306441 457.50544556 42.10420575 457.5095853 40.29535868 C457.98916095 25.76895994 457.98916095 25.76895994 453.11778259 12.44940186 C447.44606976 7.14758334 441.85941919 5.15777881 434.08113861 5.25015736 C433.29596436 5.2434448 432.51079011 5.23673225 431.7018227 5.22981629 C429.07866712 5.21225259 426.45641757 5.2230337 423.83323669 5.23377991 C421.93049411 5.22702047 420.02775702 5.21852888 418.12502909 5.2084567 C412.902346 5.18594044 407.67992821 5.18839072 402.45721173 5.19502604 C396.82248302 5.19789994 391.18782853 5.17784992 385.5531311 5.16087341 C374.51708738 5.13151192 363.48113507 5.12422396 352.44505632 5.12544892 C343.47648166 5.12628105 334.50793593 5.12042419 325.53936768 5.10982323 C304.25271549 5.0851493 282.96608699 5.06472433 261.67942047 5.07069111 C260.99895177 5.07087864 260.31848306 5.07106618 259.61739409 5.07125939 C256.16857517 5.07223138 252.71975628 5.07327523 249.27093738 5.07434211 C248.24353205 5.07465858 248.24353205 5.07465858 247.19537105 5.07498144 C245.8102636 5.07540897 244.42515615 5.07584109 243.0400487 5.07627781 C221.48237892 5.08286228 199.92491432 5.05990323 178.36729431 5.01409912 C154.14293525 4.96266575 129.91874864 4.93477898 105.6943202 4.94060105 C92.86926895 4.94317963 80.04442873 4.93515144 67.21942139 4.89953041 C56.30298435 4.8694493 45.38686822 4.8636105 34.47041428 4.88933942 C28.89966688 4.90178319 23.32952311 4.90289504 17.7588253 4.87363052 C12.65981598 4.84713362 7.56190246 4.85290305 2.46293133 4.88446047 C0.61781579 4.89020028 -1.22738223 4.88409929 -3.0724079 4.86500446 C-16.56112787 4.61636748 -16.56112787 4.61636748 -26.75721741 12.76190186 Z " fill="#260914" transform="translate(44.75721740722656,6.23809814453125)"/>
<path d="M0 0 C1.10167456 -0.00569124 2.20334912 -0.01138248 3.33840775 -0.01724619 C5.1458259 -0.019016 5.1458259 -0.019016 6.98975754 -0.02082157 C8.27399856 -0.02590939 9.55823959 -0.03099721 10.88139701 -0.03623921 C14.44421715 -0.05011937 18.0070271 -0.05772147 21.56986737 -0.0642122 C24.62619821 -0.07059188 27.68251238 -0.08066061 30.7388328 -0.09077286 C40.80529751 -0.1240606 50.87177236 -0.14560877 60.93827403 -0.16397271 C63.55951663 -0.16876951 66.18075882 -0.17375259 68.802001 -0.17877793 C85.08381781 -0.20974479 101.3656382 -0.23642597 117.6474762 -0.25319672 C121.41690451 -0.25714611 125.18633277 -0.26114913 128.95576096 -0.2652216 C129.89261631 -0.26622996 130.82947166 -0.26723832 131.79471657 -0.26827724 C146.9750368 -0.28528839 162.15519414 -0.32640514 177.33543482 -0.37724458 C192.92415715 -0.4290224 208.51279567 -0.45813892 224.10160327 -0.4653936 C232.85284259 -0.47005497 241.60381489 -0.48479739 250.35496902 -0.5251379 C257.80671519 -0.55944732 265.25814613 -0.57337346 272.70996675 -0.56071376 C276.51077231 -0.55488941 280.31091123 -0.55873393 284.11161613 -0.5888834 C288.23592312 -0.62133252 292.35877356 -0.60708803 296.48316574 -0.58844852 C297.67918828 -0.60524345 298.87521082 -0.62203838 300.10747647 -0.63934225 C307.83490317 -0.55204875 312.64132496 1.01719065 318.49042892 6.1398077 C320.64667892 8.4054327 320.64667892 8.4054327 321.99042892 10.3898077 C322.68652267 11.38754208 322.68652267 11.38754208 323.39667892 12.4054327 C325.75923641 16.15177386 325.63221964 19.29784559 325.62185669 23.61839676 C325.62390932 24.40261185 325.62596196 25.18682695 325.62807679 25.99480614 C325.63377895 28.65052134 325.6322856 31.3061852 325.63087082 33.96190548 C325.63345261 35.87397611 325.63646525 37.7860462 325.63987422 39.69811553 C325.64796928 44.9742767 325.64973518 50.25042429 325.65047169 55.52659094 C325.6523179 61.20837148 325.65986301 66.8901449 325.6666069 72.57192135 C325.68020839 85.00562544 325.68621773 97.43932632 325.69061756 109.87303662 C325.69337684 117.63113203 325.69761361 125.38922619 325.70212173 133.14732075 C325.71431663 154.61130407 325.724651 176.07528576 325.72799683 197.53927231 C325.72821846 198.92780117 325.72844024 200.31633002 325.72866218 201.70485888 C325.72888282 203.09678047 325.7291033 204.48870205 325.72932363 205.88062364 C325.72976618 208.67315439 325.7302133 211.46568515 325.7306633 214.2582159 C325.73082739 215.29679707 325.73082739 215.29679707 325.73099479 216.35635967 C325.73462636 238.81289912 325.75054961 261.26940631 325.77385366 283.72593341 C325.79843553 307.45709667 325.81216216 331.18823776 325.81336474 354.9194147 C325.81428289 367.86008766 325.82007031 380.80071838 325.83818436 393.74137974 C325.85355176 404.75897214 325.85872572 415.77650926 325.85044625 426.79411034 C325.84652784 432.41895045 325.8475272 438.04367912 325.8615036 443.66850567 C325.87417133 448.81354549 325.87310814 453.95838929 325.86091289 459.10342856 C325.85894346 460.96885775 325.86209125 462.83430049 325.87075725 464.69971059 C325.88176273 467.22794639 325.87442411 469.75547974 325.86236572 472.28369522 C325.86996092 473.01440474 325.87755611 473.74511426 325.88538146 474.4979665 C325.8403067 478.85098153 325.22940553 481.70445813 322.49042892 485.1398077 C321.83042892 485.1398077 321.17042892 485.1398077 320.49042892 485.1398077 C320.24937424 485.75469051 320.00831955 486.36957333 319.75996017 487.00308895 C318.19603008 489.63530361 316.98000902 490.17351001 314.17792892 491.3273077 C313.41867111 491.65086239 312.6594133 491.97441708 311.87714767 492.30777645 C306.85176533 494.05966915 302.05172595 494.2822141 296.76928616 494.26285553 C295.99530691 494.26400937 295.22132766 494.26516322 294.42389449 494.26635203 C291.82110707 494.26900644 289.21838106 494.26450617 286.61559677 494.26006222 C284.73449718 494.26049816 282.85339765 494.26137349 280.97229844 494.26265138 C275.79587138 494.26489183 270.61946493 494.26088117 265.44304049 494.25587332 C259.86366248 494.25156259 254.28428567 494.25301569 248.70490646 494.2537756 C239.03581275 494.25430043 229.36672577 494.25115781 219.69763374 494.24553776 C205.71767746 494.23741735 191.73772443 494.23480698 177.75776605 494.23354977 C155.07726157 494.2313601 132.39676131 494.2247109 109.716259 494.21524715 C87.68175398 494.20606357 65.64724993 494.19897954 43.61274338 494.19473934 C42.93360557 494.19460782 42.25446776 494.19447629 41.55475002 494.19434078 C34.73460116 494.19302226 27.91445229 494.19174645 21.09430342 494.19050192 C-36.10699058 494.18005991 -93.30828066 494.16241279 -150.50957108 494.1398077 C-150.50957108 493.4798077 -150.50957108 492.8198077 -150.50957108 492.1398077 C-149.07144364 492.13777291 -149.07144364 492.13777291 -147.60426313 492.13569701 C-90.82087 492.05517906 -34.03750144 491.96417476 22.74585299 491.85975609 C29.5590676 491.84722999 36.3722824 491.83480173 43.18549728 491.82242489 C43.86350207 491.82119156 44.54150686 491.81995824 45.24005725 491.81868754 C67.22492332 491.77874184 89.20979348 491.74525942 111.194675 491.71512079 C134.42280725 491.68324278 157.65091728 491.64401693 180.8790248 491.59701765 C194.79807398 491.56909238 208.71710703 491.54707688 222.63617674 491.53254519 C232.17213845 491.52202884 241.70806899 491.50423389 251.24400725 491.48064066 C256.75133521 491.46723205 262.25861935 491.45710402 267.76596451 491.45559406 C272.8037401 491.45414225 277.84141005 491.44359151 282.87915323 491.42567329 C284.70560369 491.42080653 286.53206687 491.41933557 288.3585225 491.42152889 C290.83410882 491.42401459 293.30935606 491.41432995 295.78490353 491.40152073 C296.50014129 491.40517041 297.21537905 491.40882009 297.95229068 491.41258037 C304.74937839 491.35171529 309.09268869 489.15940149 314.49042892 485.1398077 C319.37666089 479.71066107 320.7897864 475.86409085 320.74211121 468.61370468 C320.74647153 467.46610881 320.74647153 467.46610881 320.75091994 466.29532918 C320.75825269 463.71670172 320.75126134 461.13830976 320.74439621 458.5596838 C320.74669936 456.69823481 320.74987491 454.83678672 320.7538507 452.97534055 C320.76222768 447.84821753 320.75806024 442.72116862 320.75187826 437.59404528 C320.74736646 432.06900593 320.7543313 426.54397962 320.7598381 421.01894283 C320.76874826 410.18923839 320.76680263 399.35956161 320.76101282 388.52985606 C320.75650154 379.72806117 320.75588112 370.92627405 320.75806046 362.12447834 C320.75852015 360.24749412 320.75852015 360.24749412 320.75898914 358.33259102 C320.75962858 355.79072474 320.760277 353.24885845 320.76093432 350.70699217 C320.76647983 327.5302268 320.76072143 304.3534759 320.75024913 281.17671385 C320.74076338 260.022558 320.74160191 238.86842623 320.75117111 217.71427059 C320.76188426 193.95178371 320.76608753 170.1893085 320.75994658 146.42681855 C320.75930948 143.89261766 320.75868074 141.35841678 320.75806046 138.82421589 C320.7577519 137.57728441 320.75744335 136.33035293 320.75712545 135.04563564 C320.75539824 126.25631191 320.7583143 117.46699671 320.76301956 108.67767429 C320.76862912 97.9632792 320.76711056 87.24891341 320.75645807 76.53452168 C320.75120157 71.06716811 320.74914424 65.59986339 320.75575638 60.13251019 C320.76171863 55.12677066 320.75843604 50.12112525 320.74780127 45.11539426 C320.74556837 43.30513781 320.74670108 41.49487341 320.75155285 39.68462209 C321.16062704 25.59767632 321.16062704 25.59767632 316.99042892 12.3898077 C307.81275412 4.12990038 297.75334515 4.42588776 286.09025192 4.50057125 C284.21307846 4.4942548 282.3359113 4.48574902 280.45875657 4.47525102 C275.31629171 4.45279472 270.1742769 4.46129212 265.03179836 4.4749366 C259.48041736 4.48421091 253.92912843 4.46464749 248.37777328 4.44861507 C238.76493964 4.42478654 229.1522342 4.4191635 219.53937531 4.42596149 C205.64088254 4.43576379 191.74253187 4.41802299 177.8440621 4.39359418 C155.29388538 4.35470504 132.74375677 4.33799883 110.19355392 4.33536434 C88.29021249 4.33275247 66.38691823 4.31965248 44.48359299 4.29239559 C43.80810092 4.29155917 43.13260885 4.29072274 42.43664733 4.28986097 C35.65290311 4.28144947 28.86915918 4.2728252 22.08541543 4.26404507 C-34.7795719 4.19046518 -91.64453961 4.15275434 -148.50957108 4.1398077 C-148.83957108 3.4798077 -149.16957108 2.8198077 -149.50957108 2.1398077 C-148.79781125 2.13557576 -148.08605143 2.13134382 -147.35272312 2.12698364 C-130.03463901 2.02368236 -112.7165966 1.91504535 -95.39858341 1.80046844 C-87.02372814 1.74518865 -78.64886862 1.69171529 -70.27397537 1.64249325 C-62.97448895 1.59958715 -55.67503323 1.55329301 -48.37559432 1.50292915 C-44.51055766 1.47637996 -40.64552689 1.45152826 -36.78045464 1.43073368 C-33.14190302 1.41110428 -29.50340955 1.3869419 -25.86491013 1.35931683 C-23.89422448 1.34553055 -21.92350712 1.33653812 -19.95279312 1.32768917 C-18.77635239 1.31790035 -17.59991165 1.30811153 -16.3878212 1.29802608 C-15.36739636 1.29157353 -14.34697153 1.28512098 -13.29562473 1.2784729 C-10.56749574 1.21760858 -10.56749574 1.21760858 -8.17979091 0.63987911 C-5.39032661 0.11747593 -2.83657624 0.00857649 0 0 Z " fill="#060103" transform="translate(180.50957107543945,6.86019229888916)"/>
<path d="M0 0 C7.59 0 15.18 0 23 0 C23 25.74 23 51.48 23 78 C15.41 78 7.82 78 0 78 C0 52.26 0 26.52 0 0 Z " fill="#FDFDFD" transform="translate(200,248)"/>
<path d="M0 0 C1.46943593 0.00169565 2.93887694 0.0007362 4.40830994 -0.00265503 C8.3687891 -0.00436583 12.32816218 0.0307328 16.28838587 0.07278872 C20.43763164 0.11047759 24.58690707 0.11383529 28.73629761 0.12094116 C36.58084402 0.13953701 44.42488446 0.18870196 52.26920879 0.2490381 C61.2051119 0.3162679 70.14104007 0.34913348 79.07713342 0.37921071 C97.44737894 0.44180634 115.81715455 0.547238 134.18701172 0.68115234 C134.18701172 1.01115234 134.18701172 1.34115234 134.18701172 1.68115234 C87.44142826 11.03026903 38.8570886 3.335717 -8.81298828 3.68115234 C215.42201172 4.17615234 215.42201172 4.17615234 444.18701172 4.68115234 C444.18701172 5.01115234 444.18701172 5.34115234 444.18701172 5.68115234 C442.73472325 5.68033923 442.73472325 5.68033923 441.25309563 5.6795097 C383.89331953 5.64801253 326.53363467 5.65339837 269.17387229 5.70587731 C262.28941771 5.71216649 255.40496285 5.71811202 248.52050781 5.72387695 C247.83542109 5.72445648 247.15033437 5.72503601 246.44448744 5.7256331 C224.23805025 5.74425692 202.03168767 5.74018786 179.82525057 5.72435315 C156.35872291 5.70774314 132.89236211 5.71698564 109.4258461 5.75349993 C95.36697009 5.77453967 81.30840506 5.77486092 67.2495361 5.74883252 C57.61396188 5.73296711 47.97862811 5.74273994 38.34308857 5.77281249 C32.78050983 5.78941186 27.21852923 5.79457424 21.65596962 5.76933861 C16.5640237 5.74648721 11.4731907 5.75580368 6.3813231 5.79079228 C4.53866834 5.79776057 2.69592309 5.79288608 0.85334182 5.77501524 C-10.14030371 5.36527011 -10.14030371 5.36527011 -19.83720398 9.79863644 C-24.31743535 14.33683109 -25.03392104 20.37719683 -25.07500523 26.53508613 C-25.06975121 27.25309159 -25.06449718 27.97109705 -25.05908394 28.71086025 C-25.06254547 29.8854209 -25.06254547 29.8854209 -25.06607693 31.08371004 C-25.07136714 33.7053426 -25.06240099 36.32672908 -25.05349731 38.948349 C-25.05436958 40.84767434 -25.05612095 42.74699944 -25.05867565 44.64632326 C-25.06314902 49.86386101 -25.05514558 55.08131669 -25.04511952 60.29884398 C-25.03648722 65.92590369 -25.03940503 71.55295873 -25.04092407 77.18002319 C-25.04197306 86.92875707 -25.03569499 96.67746419 -25.02444839 106.42619133 C-25.00819827 120.52123313 -25.00298589 134.61626197 -25.00047241 148.71131212 C-24.99609455 171.57927853 -24.98280013 194.4472275 -24.96386719 217.31518555 C-24.94549621 239.53002854 -24.93133002 261.74486773 -24.92285156 283.9597168 C-24.92258851 284.64456778 -24.92232546 285.32941876 -24.92205443 286.0350228 C-24.91941738 292.912626 -24.91686575 299.79022922 -24.91437672 306.66783248 C-24.89349728 364.33894888 -24.8582072 422.01005014 -24.81298828 479.68115234 C-25.47298828 479.35115234 -26.13298828 479.02115234 -26.81298828 478.68115234 C-26.81298828 326.55115234 -26.81298828 174.42115234 -26.81298828 17.68115234 C-27.47298828 17.68115234 -28.13298828 17.68115234 -28.81298828 17.68115234 C-29.14298828 39.46115234 -29.47298828 61.24115234 -29.81298828 83.68115234 C-30.80298828 84.17615234 -30.80298828 84.17615234 -31.81298828 84.68115234 C-31.81298828 62.24115234 -31.81298828 39.80115234 -31.81298828 16.68115234 C-31.15298828 16.68115234 -30.49298828 16.68115234 -29.81298828 16.68115234 C-28.73773634 14.02886422 -27.71842677 11.3974678 -26.81298828 8.68115234 C-26.15298828 8.68115234 -25.49298828 8.68115234 -24.81298828 8.68115234 C-24.81298828 8.02115234 -24.81298828 7.36115234 -24.81298828 6.68115234 C-17.36027889 0.04611591 -9.51464678 -0.15500211 0 0 Z " fill="#5C1932" transform="translate(40.81298828125,6.31884765625)"/>
<path d="M0 0 C39.84849544 -0.13734965 79.69696002 -0.24306633 119.54564491 -0.30639198 C124.25072655 -0.31389617 128.95580772 -0.32166211 133.66088867 -0.32958984 C135.06592704 -0.33195064 135.06592704 -0.33195064 136.49935002 -0.33435912 C151.66381351 -0.3604631 166.82814045 -0.40776841 181.99252295 -0.46291678 C197.55395865 -0.51903689 213.11532287 -0.55235502 228.67685562 -0.56453097 C238.27831209 -0.57276145 247.87938258 -0.59875112 257.48072023 -0.6474988 C264.06579033 -0.67922816 270.65066106 -0.68879753 277.23580205 -0.68100826 C281.03455656 -0.67716723 284.8326369 -0.68303154 288.63127136 -0.71523285 C292.75363867 -0.74992253 296.8745747 -0.73791107 300.99705505 -0.7215271 C302.79036834 -0.74774267 302.79036834 -0.74774267 304.61991018 -0.77448785 C312.34743675 -0.69144853 317.1511335 0.87723902 323 6 C325.15625 8.265625 325.15625 8.265625 326.5 10.25 C327.19609375 11.24773438 327.19609375 11.24773438 327.90625 12.265625 C330.26880749 16.01196616 330.14179072 19.15803789 330.13142776 23.47858906 C330.1334804 24.26280415 330.13553303 25.04701925 330.13764787 25.85499844 C330.14335002 28.51071364 330.14185668 31.1663775 330.14044189 33.82209778 C330.14302369 35.73416841 330.14603633 37.64623849 330.1494453 39.55830783 C330.15754035 44.834469 330.15930626 50.11061659 330.16004276 55.38678324 C330.16188897 61.06856378 330.16943409 66.7503372 330.17617798 72.43211365 C330.18977947 84.86581774 330.1957888 97.29951862 330.20018864 109.73322892 C330.20294792 117.49132433 330.20718468 125.24941848 330.21169281 133.00751305 C330.2238877 154.47149637 330.23422208 175.93547806 330.2375679 197.39946461 C330.23778954 198.78799346 330.23801132 200.17652232 330.23823325 201.56505118 C330.2384539 202.95697277 330.23867438 204.34889435 330.2388947 205.74081594 C330.23933726 208.53334669 330.23978437 211.32587745 330.24023438 214.1184082 C330.24039846 215.15698937 330.24039846 215.15698937 330.24056586 216.21655197 C330.24419743 238.67309142 330.26012068 261.12959861 330.28342474 283.58612571 C330.3080066 307.31728897 330.32173324 331.04843006 330.32293582 354.779607 C330.32385397 367.72027996 330.32964139 380.66091068 330.34775543 393.60157204 C330.36312284 404.61916444 330.3682968 415.63670156 330.36001733 426.65430263 C330.35609892 432.27914275 330.35709827 437.90387142 330.37107468 443.52869797 C330.38374241 448.67373779 330.38267921 453.81858159 330.37048396 458.96362086 C330.36851454 460.82905005 330.37166232 462.69449279 330.38032833 464.55990288 C330.3913338 467.08813869 330.38399518 469.61567204 330.3719368 472.14388752 C330.37953199 472.87459704 330.38712718 473.60530656 330.39495254 474.3581588 C330.34987778 478.71117383 329.7389766 481.56465043 327 485 C326.34 485 325.68 485 325 485 C325.32448435 483.89298453 325.6489687 482.78596907 325.9832859 481.64540768 C327.70925714 473.79125184 327.28247226 465.67296609 327.26742554 457.67347717 C327.27116436 455.79192578 327.27576681 453.91037595 327.28115618 452.02882856 C327.29337242 446.86933331 327.29312734 441.70990297 327.29076743 436.55039656 C327.29035893 430.98179416 327.30140148 425.41321247 327.31088257 419.84461975 C327.32748501 408.93973805 327.33299174 398.03487797 327.33410732 387.12998468 C327.33505797 378.2668183 327.33916908 369.40365905 327.34550858 360.54049492 C327.36025298 339.49829299 327.37255858 318.45609543 327.37151146 297.41388798 C327.3714803 296.74135003 327.37144914 296.06881208 327.37141704 295.37589419 C327.37125083 291.96734478 327.37105275 288.55879538 327.37084763 285.15024597 C327.37080774 284.47331852 327.37076785 283.79639106 327.37072675 283.09895065 C327.37064587 281.73004018 327.37056228 280.36112971 327.37047596 278.99221924 C327.36925019 257.68952838 327.38427054 236.38690117 327.41162109 215.08422852 C327.44234963 191.14077137 327.45952786 167.19736203 327.45769465 143.25387949 C327.45703048 130.57974158 327.46253497 117.90567549 327.48405075 105.23155403 C327.50224837 94.44299419 327.50662135 83.65453873 327.4930319 72.8659702 C327.48649571 67.36194648 327.48640887 61.85812309 327.5037384 56.35411835 C327.51944457 51.31389615 327.51663044 46.27403355 327.49917014 41.23382025 C327.49609491 39.4122529 327.4997523 37.59065887 327.51089029 35.76912297 C327.85334749 20.4436919 327.85334749 20.4436919 320.5625 7.52734375 C319.716875 7.00269531 318.87125 6.47804688 318 5.9375 C317.154375 5.38964844 316.30875 4.84179688 315.4375 4.27734375 C311.48421091 2.20566822 308.11785826 1.87391613 303.68204117 1.8613348 C302.59770774 1.85586036 301.51337431 1.85038591 300.3961823 1.84474558 C299.20553064 1.84376747 298.01487898 1.84278936 296.78814697 1.84178162 C294.8902939 1.83437465 294.8902939 1.83437465 292.95410037 1.82681805 C289.44005471 1.813236 285.92601873 1.80581839 282.41195369 1.79939139 C278.62329267 1.79138775 274.83465178 1.77768984 271.04600525 1.76467896 C264.48118978 1.74291571 257.91637228 1.72477066 251.35153961 1.70907402 C241.8598611 1.68637402 232.36820488 1.65823137 222.87654528 1.62875474 C207.47743977 1.58108044 192.07832514 1.53781581 176.67919922 1.49731445 C161.71923107 1.45795871 146.75927101 1.41653229 131.79931641 1.37231445 C130.87738567 1.36959018 129.95545493 1.36686591 129.00558689 1.36405908 C124.38059131 1.35037959 119.75559585 1.33665932 115.13060045 1.32291877 C76.75375049 1.20895652 38.37688313 1.1021466 0 1 C0 0.67 0 0.34 0 0 Z " fill="#57152E" transform="translate(176,7)"/>
<path d="M0 0 C49.83 0 99.66 0 151 0 C152 5 152 5 151 7 C101.17 7 51.34 7 0 7 C-1 2 -1 2 0 0 Z " fill="#181818" transform="translate(181,370)"/>
<path d="M0 0 C0.66 0.33 1.32 0.66 2 1 C2.00238835 2.16436647 2.00477671 3.32873295 2.00723743 4.52838326 C2.06459836 32.16863889 2.13732966 59.80881929 2.22898628 87.44898338 C2.24025443 90.8510797 2.25139289 94.25317643 2.26245117 97.65527344 C2.2657567 98.67121697 2.2657567 98.67121697 2.269129 99.70768462 C2.30450053 110.67408142 2.32936547 121.64047815 2.35034702 132.60691084 C2.37211023 143.85964754 2.40538814 155.11231036 2.44870156 166.36498821 C2.47266458 172.68538639 2.49137321 179.00570258 2.49761391 185.32614517 C2.50365076 191.27360136 2.52360019 197.22084766 2.55427551 203.16822624 C2.56307815 205.3523189 2.56677373 207.53643895 2.56500816 209.72054863 C2.56335948 212.70083442 2.58002056 215.68047734 2.60127258 218.66067505 C2.59642501 219.52644326 2.59157743 220.39221148 2.58658296 221.28421509 C2.67202773 228.53682031 4.95938781 233.6793538 10 239 C12.27058857 240.50160205 14.58416247 241.72619475 17 243 C18.485 243.99 18.485 243.99 20 245 C22.53226127 245.19444392 24.95424909 245.27166134 27.48672867 245.25726891 C28.64615537 245.26252802 28.64615537 245.26252802 29.82900482 245.26789337 C32.44045585 245.27725831 35.05168636 245.27227101 37.66314697 245.26742554 C39.54578292 245.27115925 41.42841731 245.27575964 43.31104922 245.28115618 C48.50129376 245.29343635 53.69147408 245.29311983 58.88172984 245.29076743 C64.47287547 245.29036052 70.06400015 245.30138638 75.65513611 245.31088257 C86.61598158 245.32752139 97.57680555 245.33299343 108.5376626 245.33410732 C117.44485792 245.33505651 126.35204612 245.3391603 135.2592392 245.34550858 C156.38612964 245.36026023 177.51301571 245.37255744 198.63991165 245.37151146 C199.31590421 245.3714803 199.99189677 245.37144914 200.68837396 245.37141704 C204.11472876 245.37125082 207.54108357 245.37105274 210.96743837 245.37084763 C211.98820041 245.37078779 211.98820041 245.37078779 213.0295839 245.37072675 C214.40573827 245.37064587 215.78189263 245.37056228 217.15804699 245.37047596 C238.56714312 245.36925055 259.9761759 245.38426022 281.38525391 245.41162109 C305.42862039 245.4423358 329.47193928 245.45952858 353.51533103 245.45769465 C366.24926616 245.45702989 378.98312985 245.46255946 391.71704865 245.48405075 C402.55927234 245.50223159 413.40139223 245.50663545 424.24362454 245.4930319 C429.77761344 245.48648639 435.31140302 245.48644208 440.84537315 245.5037384 C445.90973293 245.5194044 450.97373426 245.51667187 456.03808495 245.49917014 C457.87189123 245.49608591 459.70572383 245.49978583 461.53949907 245.51089029 C464.03007061 245.52497513 466.51937854 245.51445439 469.00990677 245.49777794 C469.723846 245.5077143 470.43778523 245.51765066 471.17335898 245.52788812 C476.60567676 245.45085347 479.51850807 243.77628901 484 241 C486.4375 241.25 486.4375 241.25 488 242 C485.13818589 245.16305771 481.7900218 247.1049891 478 249 C477.34 248.67 476.68 248.34 476 248 C473.51846474 247.90792308 471.06543381 247.87715477 468.58388042 247.89091873 C467.41768802 247.89143494 467.41768802 247.89143494 466.22793618 247.89196157 C463.59518004 247.89434728 460.96249725 247.90393082 458.32975769 247.91339111 C456.43418756 247.9165324 454.53861662 247.91922071 452.64304525 247.92149234 C448.50741542 247.92742331 444.37180879 247.93656109 440.2361908 247.94808578 C433.50856637 247.96681332 426.78093984 247.97871308 420.05329895 247.98971558 C411.55380684 248.00412761 403.05432166 248.02040993 394.55483732 248.03885099 C377.85657883 248.07504871 361.15832293 248.09896806 344.46003723 248.11834717 C341.83390797 248.12145773 339.20777872 248.12457541 336.58164948 248.12770009 C332.60130135 248.13242604 328.62095321 248.13714412 324.64060503 248.14183249 C309.62392684 248.15954294 294.60725069 248.17862803 279.59057617 248.19921875 C278.56096407 248.20062377 278.56096407 248.20062377 277.51055171 248.20205718 C255.24800569 248.23253781 232.98550901 248.27672368 210.72299968 248.32695303 C187.19675728 248.37993758 163.67056319 248.41422583 140.14426118 248.42977214 C126.04841022 248.43975681 111.95275584 248.46519031 97.85697255 248.51022884 C88.20142614 248.53973063 78.54596715 248.55108837 68.89037653 248.54799369 C63.31405466 248.54677183 57.73805513 248.55382881 52.16180038 248.58256912 C47.06107426 248.60869126 41.96087343 248.61195319 36.86010794 248.5967072 C35.0108172 248.59528267 33.16149696 248.60240242 31.31227782 248.61873713 C28.80541441 248.63966185 26.30048887 248.62998372 23.793643 248.61244583 C22.70720479 248.6325772 22.70720479 248.6325772 21.59881833 248.65311527 C17.67877499 248.58888115 16.18305338 248.16187994 13.20039731 245.52422214 C12.4742662 244.69122883 11.74813509 243.85823553 11 243 C10.01 242.67 9.02 242.34 8 242 C3.82648059 238.24383253 0.34022438 234.75905757 -0.36635017 229.02907467 C-0.36228598 227.91998525 -0.35822178 226.81089582 -0.35403442 225.66819763 C-0.35671326 224.38808807 -0.35939209 223.10797852 -0.3621521 221.78907776 C-0.34993656 220.37557751 -0.33744547 218.96207962 -0.32470703 217.54858398 C-0.3222213 216.05228838 -0.32107668 214.55599005 -0.32116699 213.05969238 C-0.3184577 209.8273179 -0.30620293 206.59516804 -0.28662491 203.3628521 C-0.25527023 198.17281395 -0.24526885 192.98285936 -0.23776245 187.79273987 C-0.22322857 179.49089522 -0.19434436 171.1891703 -0.15951526 162.88738829 C-0.09118104 146.52621961 -0.05010152 130.16497144 -0.01406765 113.80370378 C-0.00781643 111.12277903 -0.00058745 108.44185841 0.00685883 105.76093674 C0.08085598 78.1868789 -0.13994277 50.62636208 -0.68397236 23.05742216 C-0.72463499 20.98138138 -0.7634909 18.90531462 -0.8018074 16.82922935 C-0.8490776 14.3194183 -0.90078279 11.8096855 -0.95765305 9.30007362 C-0.97814335 8.21101408 -0.99863365 7.12195454 -1.01974487 5.99989319 C-1.0401074 5.05179811 -1.06046993 4.10370302 -1.08144951 3.12687778 C-1 1 -1 1 0 0 Z " fill="#761C40" transform="translate(9,256)"/>
<path d="M0 0 C41.91 0 83.82 0 127 0 C127 0.66 127 1.32 127 2 C127.66 2 128.32 2 129 2 C129.04629062 13.6827136 129.08185254 25.36540547 129.10362434 37.04819202 C129.11407242 42.47267198 129.1282503 47.8970893 129.15087891 53.3215332 C129.17257077 58.5540243 129.18456091 63.78645507 129.18975449 69.01898766 C129.19345682 71.01772703 129.20068632 73.01646301 129.21146011 75.01517677 C129.2259264 77.80942612 129.22797998 80.60342446 129.22705078 83.39770508 C129.23424133 84.22848572 129.24143188 85.05926636 129.24884033 85.91522217 C129.23480165 89.80308889 129.20727666 91.68908501 127 95 C124.77049828 95.36914349 124.77049828 95.36914349 121.93807983 95.36076355 C120.86673294 95.36488754 119.79538605 95.36901154 118.6915741 95.3732605 C116.92104424 95.35708176 116.92104424 95.35708176 115.11474609 95.34057617 C113.87575058 95.34101425 112.63675507 95.34145233 111.36021423 95.34190369 C107.95733587 95.3401685 104.55499973 95.32509646 101.15221739 95.30418181 C97.59812731 95.28546112 94.04403045 95.28366822 90.48989868 95.28010559 C83.75731993 95.27077152 77.02488687 95.24613946 70.29237235 95.21605712 C62.62864712 95.18255535 54.96491502 95.16603776 47.30113482 95.15097082 C31.53400543 95.11959098 15.76702148 95.06680419 0 95 C-2.28879558 90.89467704 -2.28231971 87.23127761 -2.25878906 82.62304688 C-2.2622937 81.7803273 -2.26579834 80.93760773 -2.26940918 80.0693512 C-2.27820643 77.28573349 -2.27238441 74.50237026 -2.265625 71.71875 C-2.26697223 69.78348746 -2.26891324 67.84822525 -2.27142334 65.91296387 C-2.27437188 61.85779598 -2.27008559 57.80271623 -2.26074219 53.74755859 C-2.24934784 48.54878474 -2.25590874 43.35021739 -2.26788712 38.15145111 C-2.27511297 34.1554814 -2.27281444 30.15956066 -2.26763153 26.16358948 C-2.26629704 24.24662756 -2.26793573 22.3296612 -2.27259064 20.41270447 C-2.27766773 17.73400078 -2.26992895 15.05563187 -2.25878906 12.37695312 C-2.26283752 11.58410416 -2.26688599 10.79125519 -2.27105713 9.97438049 C-2.23926521 5.84935067 -1.89461208 3.78922416 0 0 Z M0 4 C-0.10046992 6.69772971 -0.13616448 9.36988653 -0.12939453 12.06811523 C-0.13114685 12.91360931 -0.13289917 13.75910339 -0.13470459 14.63021851 C-0.13912458 17.43969748 -0.13618434 20.24911407 -0.1328125 23.05859375 C-0.13348556 25.0029349 -0.1344556 26.94727596 -0.13571167 28.89161682 C-0.13718889 32.97308145 -0.13503354 37.05452423 -0.13037109 41.13598633 C-0.12467757 46.37646698 -0.12795027 51.61689638 -0.13394356 56.85737514 C-0.13755173 60.87470386 -0.13640933 64.89202036 -0.13381577 68.90934944 C-0.13314701 70.84191964 -0.13397313 72.77449094 -0.13629532 74.70705986 C-0.13882561 77.40556665 -0.13497571 80.10398971 -0.12939453 82.80249023 C-0.13141876 83.60724289 -0.13344299 84.41199554 -0.13552856 85.24113464 C-0.21112094 89.25074231 -0.21112094 89.25074231 1 93 C17.28070303 93.02332902 33.56140067 93.04097919 49.84211636 93.05181217 C57.40101619 93.05697512 64.95990565 93.0640178 72.51879883 93.07543945 C79.10479666 93.08538632 85.69078698 93.09185343 92.27679211 93.09408849 C95.76613071 93.0953956 99.25544784 93.09848142 102.74477959 93.10573006 C106.63381232 93.11374398 110.52282378 93.11399114 114.41186523 93.11352539 C116.15973579 93.1189183 116.15973579 93.1189183 117.94291687 93.12442017 C118.99606079 93.1230455 120.04920471 93.12167084 121.13426208 93.12025452 C122.05513328 93.12117631 122.97600447 93.1220981 123.92478085 93.12304783 C125.99029255 93.23104526 125.99029255 93.23104526 127 92 C127.10578991 89.30237538 127.14677939 86.63021879 127.14526367 83.93188477 C127.14862228 83.08639069 127.1519809 82.24089661 127.15544128 81.36978149 C127.16498082 78.56030835 127.16689589 75.75089461 127.16796875 72.94140625 C127.17117922 70.99706497 127.17454313 69.05272394 127.17805481 67.10838318 C127.18405359 63.02692098 127.18589394 58.94547997 127.18530273 54.86401367 C127.18520106 49.62349492 127.19885502 44.38311151 127.21607494 39.14262486 C127.22717101 35.12529369 127.22922268 31.10799549 127.22869301 27.09065056 C127.22987668 25.15807567 127.23431997 23.22550003 127.24202538 21.29294014 C127.25177725 18.59436579 127.24896638 15.89608847 127.24291992 13.19750977 C127.24853943 12.39275711 127.25415894 11.58800446 127.25994873 10.75886536 C127.40369437 6.41338347 127.40369437 6.41338347 125 3 C122.72854377 2.69868285 122.72854377 2.69868285 120.05870056 2.75276184 C118.49171165 2.74647011 118.49171165 2.74647011 116.89306641 2.74005127 C115.74233643 2.74567078 114.59160645 2.75129028 113.40600586 2.75708008 C112.19787735 2.75518173 110.98974884 2.75328339 109.74501038 2.75132751 C106.42689331 2.74825161 103.10902401 2.75414252 99.79093623 2.76428056 C96.32405033 2.77304874 92.85716878 2.77130386 89.39027405 2.7709198 C83.56867217 2.7718569 77.74712235 2.78054763 71.92553711 2.79418945 C65.18630823 2.80992283 58.44713637 2.81518733 51.70789045 2.8144539 C45.2344419 2.81384444 38.761012 2.81894189 32.28756905 2.82724571 C29.52800921 2.83078436 26.76845597 2.83260979 24.00889397 2.83313942 C20.16077518 2.83432659 16.31270425 2.84402301 12.46459961 2.85473633 C10.73546829 2.85405655 10.73546829 2.85405655 8.97140503 2.85336304 C7.92956558 2.85762802 6.88772614 2.86189301 5.8143158 2.86628723 C4.44796698 2.868801 4.44796698 2.868801 3.05401516 2.87136555 C1.00730083 2.77218996 1.00730083 2.77218996 0 4 Z " fill="#6E6E6E" transform="translate(193,239)"/>
<path d="M0 0 C0.94757272 0.00322913 1.89514544 0.00645826 2.87143248 0.00978523 C6.04825578 0.02185424 9.2249924 0.04122845 12.40177917 0.06056213 C14.6783479 0.07070556 16.95491867 0.08039917 19.23149109 0.0896759 C25.4149102 0.11615045 31.59828183 0.14893136 37.78166413 0.1828258 C44.24255866 0.21717515 50.70347863 0.24575065 57.16439819 0.27493286 C68.00965669 0.32469815 78.85489145 0.37803164 89.70011902 0.43409729 C100.87003015 0.49183165 112.03994856 0.54741692 123.20988464 0.60011292 C123.898567 0.60336263 124.58724937 0.60661235 125.29680089 0.60996055 C128.75176801 0.62625042 132.20673533 0.64249804 135.66170275 0.65872467 C164.31752656 0.79336445 192.97331018 0.93548371 221.6290741 1.08229065 C221.6290741 1.41229065 221.6290741 1.74229065 221.6290741 2.08229065 C246.7090741 2.41229065 271.7890741 2.74229065 297.6290741 3.08229065 C297.6290741 3.41229065 297.6290741 3.74229065 297.6290741 4.08229065 C149.1290741 4.08229065 0.6290741 4.08229065 -152.3709259 4.08229065 C-152.7009259 3.42229065 -153.0309259 2.76229065 -153.3709259 2.08229065 C-152.65916608 2.07805871 -151.94740625 2.07382677 -151.21407795 2.06946659 C-133.89599384 1.96616531 -116.57795143 1.8575283 -99.25993824 1.74295139 C-90.88508297 1.6876716 -82.51022344 1.63419824 -74.1353302 1.5849762 C-66.83584378 1.5420701 -59.53638806 1.49577595 -52.23694915 1.4454121 C-48.37191249 1.41886291 -44.50688172 1.39401121 -40.64180946 1.37321663 C-37.00325785 1.35358723 -33.36476438 1.32942485 -29.72626495 1.30179977 C-27.75557931 1.28801349 -25.78486195 1.27902107 -23.81414795 1.27017212 C-22.63770721 1.2603833 -21.46126648 1.25059448 -20.24917603 1.24050903 C-19.22875119 1.23405648 -18.20832636 1.22760393 -17.15697956 1.22095585 C-14.43587191 1.16334826 -14.43587191 1.16334826 -12.08921814 0.57754517 C-8.0600347 -0.15654489 -4.08656482 -0.03144392 0 0 Z " fill="#14040A" transform="translate(184.3709259033203,6.9177093505859375)"/>
<path d="M0 0 C3 2 3 2 4.17120647 5.48655987 C5.66153428 13.27456607 5.27875657 21.31749693 5.26069641 29.21504211 C5.26371872 31.08437016 5.2676086 32.95369696 5.27228898 34.82302159 C5.28256674 39.94849773 5.28038775 45.07390389 5.27610838 50.19938576 C5.2736409 55.73106078 5.28265539 61.26271897 5.29014587 66.79438782 C5.30289237 77.62506852 5.30468678 88.45572444 5.30234561 99.28641138 C5.30056293 108.08574646 5.30231101 116.88507401 5.30657005 125.68440819 C5.30716524 126.93649717 5.30776043 128.18858615 5.30837366 129.47861722 C5.30958539 132.02210449 5.31079952 134.56559176 5.31201603 137.10907903 C5.31980193 154.18351285 5.32372313 171.25794418 5.31969929 188.33237934 C5.31954291 188.99973716 5.31938654 189.66709498 5.31922542 190.35467577 C5.31841965 193.73704676 5.31757388 197.11941774 5.31671212 200.50178871 C5.31654103 201.17353159 5.31636994 201.84527448 5.31619367 202.5373732 C5.31584702 203.89579692 5.31549849 205.25422064 5.31514808 206.61264436 C5.30978638 227.7675769 5.31773548 248.9224678 5.33618164 270.07739258 C5.35688362 293.84719301 5.36759709 317.61697126 5.36360615 341.3867833 C5.36169063 353.97240712 5.36421618 366.55799298 5.37832069 379.14361 C5.39020061 389.85254649 5.39167731 400.56142162 5.37953053 411.2703589 C5.37361912 416.73715123 5.37260469 422.20383114 5.38453293 427.67061615 C5.39531452 432.66976466 5.39238134 437.66870583 5.37827124 442.66784432 C5.37560296 444.48122789 5.3780569 446.29462732 5.38600711 448.10799543 C5.39603 450.56355019 5.38776329 453.01837249 5.37473011 455.47389698 C5.38203946 456.18598044 5.3893488 456.8980639 5.39687964 457.63172564 C5.35175452 461.70354897 4.86160793 464.03560222 2 467 C2.00037972 466.03565991 2.00075944 465.07131982 2.00115067 464.0777573 C2.02355626 406.95189253 2.04068298 349.82602805 2.05106533 292.70015978 C2.05231268 285.84445873 2.05360923 278.98875768 2.05493164 272.13305664 C2.0550624 271.45082884 2.05519316 270.76860105 2.05532788 270.06569968 C2.05958988 247.94929986 2.06710168 225.83290259 2.07629722 203.71650432 C2.08599632 180.34656289 2.09199567 156.97662358 2.09408849 133.60667998 C2.09546216 119.60471639 2.09980432 105.60276013 2.10791647 91.60079879 C2.11319317 82.00550339 2.11480218 72.4102118 2.11350138 62.81491505 C2.11285945 57.27493887 2.11385919 51.73497552 2.11920547 46.1950016 C2.12406251 41.12508653 2.12432341 36.05519294 2.12089889 30.98527689 C2.12047548 29.14936325 2.12175177 27.31344828 2.12488318 25.47753727 C2.12888881 22.98448954 2.12673735 20.49151967 2.12304783 17.99847317 C2.12698835 16.92627801 2.12698835 16.92627801 2.13100848 15.83242235 C2.11273082 10.37665865 1.7312689 5.19380671 0 0 Z " fill="#691D39" transform="translate(497,20)"/>
<path d="M0 0 C0.66 0.33 1.32 0.66 2 1 C2.00238835 2.16436647 2.00477671 3.32873295 2.00723743 4.52838326 C2.06459836 32.16863889 2.13732966 59.80881929 2.22898628 87.44898338 C2.24025443 90.8510797 2.25139289 94.25317643 2.26245117 97.65527344 C2.2657567 98.67121697 2.2657567 98.67121697 2.269129 99.70768462 C2.30450053 110.67408142 2.32936547 121.64047815 2.35034702 132.60691084 C2.37211023 143.85964754 2.40538814 155.11231036 2.44870156 166.36498821 C2.47266458 172.68538639 2.49137321 179.00570258 2.49761391 185.32614517 C2.50365076 191.27360136 2.52360019 197.22084766 2.55427551 203.16822624 C2.56307815 205.3523189 2.56677373 207.53643895 2.56500816 209.72054863 C2.56335948 212.70083442 2.58002056 215.68047734 2.60127258 218.66067505 C2.59642501 219.52644326 2.59157743 220.39221148 2.58658296 221.28421509 C2.67202773 228.53682031 4.95938781 233.6793538 10 239 C12.27452601 240.45736221 14.62536855 241.70474648 17 243 C18.9375 244.75 18.9375 244.75 20 246 C12.21746835 245.2370067 8.21203809 242.76067368 3 237 C0.2018234 233.09719417 -0.37153835 230.44489052 -0.35403442 225.66819763 C-0.35671326 224.38808807 -0.35939209 223.10797852 -0.3621521 221.78907776 C-0.34993656 220.37557751 -0.33744547 218.96207962 -0.32470703 217.54858398 C-0.3222213 216.05228838 -0.32107668 214.55599005 -0.32116699 213.05969238 C-0.3184577 209.8273179 -0.30620293 206.59516804 -0.28662491 203.3628521 C-0.25527023 198.17281395 -0.24526885 192.98285936 -0.23776245 187.79273987 C-0.22322857 179.49089522 -0.19434436 171.1891703 -0.15951526 162.88738829 C-0.09118104 146.52621961 -0.05010152 130.16497144 -0.01406765 113.80370378 C-0.00781643 111.12277903 -0.00058745 108.44185841 0.00685883 105.76093674 C0.08085598 78.1868789 -0.13994277 50.62636208 -0.68397236 23.05742216 C-0.72463499 20.98138138 -0.7634909 18.90531462 -0.8018074 16.82922935 C-0.8490776 14.3194183 -0.90078279 11.8096855 -0.95765305 9.30007362 C-0.97814335 8.21101408 -0.99863365 7.12195454 -1.01974487 5.99989319 C-1.0401074 5.05179811 -1.06046993 4.10370302 -1.08144951 3.12687778 C-1 1 -1 1 0 0 Z " fill="#5A1730" transform="translate(9,256)"/>
<path d="M0 0 C39.88255521 -0.1144244 79.76508903 -0.20253821 119.64777556 -0.25532665 C124.35543463 -0.26158024 129.06309337 -0.26805185 133.77075195 -0.2746582 C134.70796882 -0.27596976 135.64518568 -0.27728131 136.61080306 -0.2786326 C151.78952847 -0.30039389 166.96815927 -0.33981941 182.14682854 -0.38576398 C197.71955733 -0.43250849 213.29223654 -0.46029115 228.86503261 -0.47044247 C238.47565603 -0.4773058 248.08601205 -0.49898903 257.69655316 -0.53958233 C264.28533347 -0.56599594 270.87397538 -0.57400414 277.4628048 -0.56750689 C281.2652808 -0.56430181 285.06728928 -0.56924208 288.86968231 -0.59602737 C292.99261588 -0.62485854 297.11455273 -0.61494576 301.23756409 -0.60127258 C303.0396159 -0.62311889 303.0396159 -0.62311889 304.8780728 -0.64540654 C311.88612517 -0.58242435 315.90737582 0.00394262 321 5 C321.67280298 7.16952628 321.67280298 7.16952628 322 9 C321.39671875 8.57847656 320.7934375 8.15695312 320.171875 7.72265625 C319.37265625 7.17480469 318.5734375 6.62695312 317.75 6.0625 C316.96109375 5.51722656 316.1721875 4.97195312 315.359375 4.41015625 C311.49620253 2.10120714 308.13519572 1.8739653 303.68204117 1.8613348 C302.59770774 1.85586036 301.51337431 1.85038591 300.3961823 1.84474558 C299.20553064 1.84376747 298.01487898 1.84278936 296.78814697 1.84178162 C294.8902939 1.83437465 294.8902939 1.83437465 292.95410037 1.82681805 C289.44005471 1.813236 285.92601873 1.80581839 282.41195369 1.79939139 C278.62329267 1.79138775 274.83465178 1.77768984 271.04600525 1.76467896 C264.48118978 1.74291571 257.91637228 1.72477066 251.35153961 1.70907402 C241.8598611 1.68637402 232.36820488 1.65823137 222.87654528 1.62875474 C207.47743977 1.58108044 192.07832514 1.53781581 176.67919922 1.49731445 C161.71923107 1.45795871 146.75927101 1.41653229 131.79931641 1.37231445 C130.87738567 1.36959018 129.95545493 1.36686591 129.00558689 1.36405908 C124.38059131 1.35037959 119.75559585 1.33665932 115.13060045 1.32291877 C76.75375049 1.20895652 38.37688313 1.1021466 0 1 C0 0.67 0 0.34 0 0 Z " fill="#51132A" transform="translate(176,7)"/>
<path d="M0 0 C7.59 0 15.18 0 23 0 C23 25.74 23 51.48 23 78 C15.41 78 7.82 78 0 78 C0 52.26 0 26.52 0 0 Z M1 1 C1 25.75 1 50.5 1 76 C7.6 76 14.2 76 21 76 C22.33587809 74.88995879 22.33587809 74.88995879 22.12025452 72.07041931 C22.11803391 70.75803787 22.11581329 69.44565643 22.11352539 68.09350586 C22.11367142 67.37159561 22.11381744 66.64968536 22.1139679 65.90589905 C22.11326869 63.50885053 22.10547595 61.11187877 22.09765625 58.71484375 C22.0957921 57.05717511 22.09436818 55.39950593 22.09336853 53.74183655 C22.08954312 49.37045786 22.07971265 44.99911219 22.06866455 40.62774658 C22.05845092 36.17045539 22.05387101 31.71315889 22.04882812 27.25585938 C22.0380904 18.50388938 22.02049342 9.7519526 22 1 C15.07 1 8.14 1 1 1 Z " fill="#C5C5C5" transform="translate(200,248)"/>
<path d="M0 0 C1.35121077 0.00169608 2.70242706 0.00073535 4.05363464 -0.00265503 C7.69185126 -0.00436417 11.32886111 0.03070615 14.96679926 0.07278872 C18.77971295 0.11050622 22.59265973 0.1138375 26.4057312 0.12094116 C33.61281197 0.13952878 40.8193413 0.1886821 48.02618015 0.2490381 C56.23657667 0.31629401 64.44700067 0.34913996 72.65760446 0.37921071 C89.5349124 0.44178761 106.41168485 0.54720261 123.28857422 0.68115234 C123.28857422 1.01115234 123.28857422 1.34115234 123.28857422 1.68115234 C122.27008345 1.68473487 122.27008345 1.68473487 121.23101711 1.68838978 C104.69660947 1.74756962 88.16236579 1.82313873 71.62811947 1.91686726 C63.63222002 1.9618003 55.63636486 2.00122068 47.64038086 2.02758789 C40.66969551 2.05058819 33.69915062 2.08400883 26.72857672 2.1298539 C23.03894419 2.15375886 19.34945052 2.17250544 15.65974236 2.17876625 C11.53703935 2.18595727 7.41481861 2.21641572 3.29223633 2.2487793 C2.07375504 2.24734421 0.85527374 2.24590912 -0.40013123 2.24443054 C-6.63210681 2.31365803 -11.20544377 2.69540177 -16.71142578 5.68115234 C-20.21142578 7.18115234 -20.21142578 7.18115234 -23.71142578 8.68115234 C-23.71142578 8.02115234 -23.71142578 7.36115234 -23.71142578 6.68115234 C-16.44860814 0.3620004 -9.26219063 -0.16046987 0 0 Z " fill="#55142C" transform="translate(39.71142578125,6.31884765625)"/>
<path d="M0 0 C0.66 0.33 1.32 0.66 2 1 C2 28.06 2 55.12 2 83 C-0.09042666 78.81914668 -0.31108434 75.92009847 -0.3347168 71.40161133 C-0.34636871 70.64185501 -0.35802063 69.88209869 -0.37002563 69.09931946 C-0.40594972 66.59357899 -0.4278558 64.08793488 -0.44921875 61.58203125 C-0.47047119 59.84135579 -0.49243836 58.10068893 -0.51509094 56.36003113 C-0.56045908 52.71605227 -0.59926439 49.07208276 -0.63305664 45.42797852 C-0.67669708 40.7467258 -0.73342103 36.06574691 -0.7946043 31.3846941 C-0.84067576 27.79294466 -0.88151454 24.20115167 -0.92057228 20.60931969 C-0.93967374 18.88244903 -0.96003839 17.15559188 -0.98166466 15.42875099 C-1.01068861 13.02258691 -1.03307198 10.6164557 -1.0534668 8.21020508 C-1.06327072 7.49072693 -1.07307465 6.77124878 -1.08317566 6.02996826 C-1.0938484 4.35311692 -1.0525389 2.67606205 -1 1 C-0.67 0.67 -0.34 0.34 0 0 Z " fill="#4E142B" transform="translate(9,256)"/>
<path d="M0 0 C0.66 0 1.32 0 2 0 C1.56034768 2.9896358 0.9466379 5.09750297 -0.51594543 7.76992798 C-2.14773888 11.32155639 -2.39396889 13.6696514 -2.43237305 17.55615234 C-2.46206429 19.47746475 -2.46206429 19.47746475 -2.49235535 21.43759155 C-2.49912358 22.82037204 -2.50557062 24.20315412 -2.51171875 25.5859375 C-2.528579 27.0122735 -2.54673105 28.43859476 -2.56611633 29.86489868 C-2.61347688 33.60320429 -2.64337593 37.34145012 -2.66955566 41.07995605 C-2.69943201 44.90108032 -2.74593788 48.72199894 -2.79101562 52.54296875 C-2.87688981 60.02854348 -2.94430514 67.51413341 -3 75 C-3.99 75.495 -3.99 75.495 -5 76 C-5 53.56 -5 31.12 -5 8 C-4.34 8 -3.68 8 -3 8 C-1.92474806 5.34771188 -0.90543849 2.71631546 0 0 Z " fill="#55152D" transform="translate(14,15)"/>
<path d="M0 0 C0.66 0 1.32 0 2 0 C1.56417353 2.96361998 0.97142918 5.05118938 -0.5 7.6875 C-2.24489823 11.54081693 -2.48501596 14.74168724 -2.69140625 18.92578125 C-2.79324219 19.61027344 -2.89507812 20.29476562 -3 21 C-3.66 21.33 -4.32 21.66 -5 22 C-5 17.38 -5 12.76 -5 8 C-4.34 8 -3.68 8 -3 8 C-1.92474806 5.34771188 -0.90543849 2.71631546 0 0 Z " fill="#6D2140" transform="translate(14,15)"/>
<path d="M0 0 C2 1 2 1 2 1 Z M-2 1 C-1.34 1.33 -0.68 1.66 0 2 C-0.74250597 6.08378283 -1.82923301 10.01939223 -3 14 C-3.66 14 -4.32 14 -5 14 C-5.625 11.125 -5.625 11.125 -6 8 C-5.34 7.34 -4.68 6.68 -4 6 C-3.29289322 4.35008418 -2.62056011 2.68437744 -2 1 Z " fill="#1A060E" transform="translate(19,13)"/>
<path d="M0 0 C0.6875 1.8125 0.6875 1.8125 1 4 C-0.654934 6.6284246 -1.98925894 6.99709096 -5 7.8125 C-8 8 -8 8 -11 6 C-9.68 5.01 -8.36 4.02 -7 3 C-6.34 3.33 -5.68 3.66 -5 4 C-4.34 3.67 -3.68 3.34 -3 3 C-2.01 3 -1.02 3 0 3 C0 2.01 0 1.02 0 0 Z " fill="#330C1B" transform="translate(500,490)"/>
<path d="M0 0 C-3 2 -3 2 -6 2 C-6.226875 2.5775 -6.45375 3.155 -6.6875 3.75 C-8.33038023 6.5663661 -10.39533227 8.08077114 -13 10 C-13 7 -13 7 -11.5390625 5.2109375 C-10.90742188 4.60507812 -10.27578125 3.99921875 -9.625 3.375 C-8.68527344 2.45847656 -8.68527344 2.45847656 -7.7265625 1.5234375 C-4.81889722 -1.04214952 -3.61997646 -1.08599294 0 0 Z " fill="#71203D" transform="translate(30,13)"/>
<path d="M0 0 C0.66 0.33 1.32 0.66 2 1 C2.625 3.0625 2.625 3.0625 3 5 C2.01 5 1.02 5 0 5 C0 5.99 0 6.98 0 8 C-1.98 8.99 -3.96 9.98 -6 11 C-4.89315584 7.16861638 -4.02722356 4.63236831 -1 2 C-0.67 1.34 -0.34 0.68 0 0 Z " fill="#12040A" transform="translate(500,485)"/>
<path d="M0 0 C0 0.66 0 1.32 0 2 C-7 5 -7 5 -14 8 C-14 7.34 -14 6.68 -14 6 C-11.953125 4.4921875 -11.953125 4.4921875 -9.25 2.875 C-8.36828125 2.33617187 -7.4865625 1.79734375 -6.578125 1.2421875 C-4 0 -4 0 0 0 Z " fill="#601B36" transform="translate(30,7)"/>
<path d="M0 0 C0.515625 0.2475 1.03125 0.495 1.5625 0.75 C-0.7807476 3.46323406 -2.97045129 4.7965616 -6.4375 5.75 C-7.4275 5.09 -8.4175 4.43 -9.4375 3.75 C-3.0375 -0.31153846 -3.0375 -0.31153846 0 0 Z " fill="#57152E" transform="translate(495.4375,497.25)"/>
</svg>
