<?xml version="1.0" encoding="UTF-8"?>
<svg version="1.1" xmlns="http://www.w3.org/2000/svg" width="246" height="246">
<path d="M0 0 C0.92087119 0.00092179 1.84174238 0.00184359 2.79051876 0.00279331 C3.84366268 0.00141865 4.8968066 0.00004398 5.98186398 -0.00137234 C7.72973454 0.00402058 7.72973454 0.00402058 9.51291561 0.00952244 C10.73225796 0.00937641 11.9516003 0.00923038 13.20789242 0.00907993 C16.56105596 0.0096589 19.91415859 0.01468815 23.26731133 0.02165389 C26.76803646 0.027888 30.26876233 0.02849127 33.76949215 0.0296793 C40.4028774 0.03279245 47.03624625 0.04100561 53.66962427 0.05102879 C61.21968292 0.06219044 68.76974233 0.06770051 76.31980717 0.07272422 C91.85480791 0.08318824 107.38979227 0.10078736 122.92478085 0.12304783 C123.36986492 0.90251774 123.814949 1.68198765 124.27352047 2.48507786 C125.96391168 5.44515381 127.65453293 8.40509815 129.34529781 11.36496067 C130.0697314 12.63326125 130.79407965 13.90161058 131.51833248 15.17001438 C138.33021503 27.099608 145.18824346 39.00213472 152.0614996 50.89648533 C153.94513135 54.1582879 155.82600406 57.42166627 157.70603085 60.68554783 C158.64466976 62.31375462 158.64466976 62.31375462 159.60227108 63.97485447 C160.84882537 66.13941261 162.09316698 68.30524668 163.33518124 70.47241306 C166.4950319 75.97317283 169.70643748 81.43266424 173.0146246 86.84570408 C173.67067684 87.9315781 174.32672909 89.01745213 175.00266171 90.13623142 C176.2520526 92.1995593 177.51644196 94.25390532 178.79807186 96.29736423 C181.11916897 100.15322349 182.83366036 103.0394529 183.21384335 107.56054783 C181.21964637 113.07178309 178.31036021 117.92190175 175.29978085 122.93554783 C174.61952545 124.08782388 173.94051165 125.24083372 173.26267147 126.3945322 C171.85501882 128.78818527 170.44210385 131.17860891 169.02536678 133.56689548 C165.77492934 139.05651072 162.6042425 144.59214003 159.42478085 150.12304783 C158.17643553 152.28731374 156.9277364 154.45137562 155.6786871 156.61523533 C153.16408649 160.97370171 150.65123423 165.33316974 148.1396246 169.69336033 C141.79658294 180.70251938 135.43985341 191.70361408 129.04978085 202.68554783 C128.44835262 203.72147068 127.8469244 204.75739353 127.22727108 205.82470798 C126.4007806 207.2427573 126.4007806 207.2427573 125.55759335 208.68945408 C124.8288702 209.94157688 124.8288702 209.94157688 124.08542538 211.21899509 C122.92478085 213.12304783 122.92478085 213.12304783 121.92478085 214.12304783 C120.35108181 214.27110074 118.7709612 214.35142665 117.19121456 214.40480137 C116.16671703 214.44085987 115.14221951 214.47691837 114.0866766 214.51406956 C112.38582409 214.56523426 112.38582409 214.56523426 110.65061092 214.61743259 C109.46351025 214.65612965 108.27640957 214.6948267 107.05333614 214.73469639 C96.05933797 215.07494337 85.0631554 215.28530975 74.06524277 215.44867134 C66.67483836 215.56109798 59.29098221 215.71824709 51.90451717 215.98852634 C45.45669641 216.22440768 39.01349026 216.37374397 32.56143588 216.42184204 C29.14833386 216.45010698 25.74784959 216.51880015 22.33873081 216.69113445 C5.05341908 217.4647424 5.05341908 217.4647424 -2.07521915 214.12304783 C-8.26932757 208.29352627 -11.66897254 200.65820148 -14.88774586 192.91063976 C-16.3847673 189.39638399 -18.20107594 186.25872883 -20.1963129 183.00586033 C-21.30239223 181.08694131 -22.40787643 179.16767911 -23.51271915 177.24804783 C-24.77181717 175.06314245 -26.03093226 172.87824691 -27.2900629 170.69336033 C-27.91509708 169.60829197 -28.54013126 168.52322361 -29.18410587 167.40527439 C-32.92665556 160.90968467 -36.67422159 154.41698741 -40.42141056 147.92407322 C-43.35704674 142.8367975 -46.29138528 137.74878679 -49.2211237 132.65811253 C-50.60850011 130.24761035 -51.9966154 127.83753407 -53.38478947 125.42749119 C-54.3669573 123.72160815 -55.348053 122.01510797 -56.3291254 120.3085947 C-56.92209415 119.2792783 -57.5150629 118.24996189 -58.1260004 117.18945408 C-58.64847355 116.28139011 -59.17094669 115.37332615 -59.70925236 114.43774509 C-60.77499881 112.63178582 -61.91202668 110.86783654 -63.07521915 109.12304783 C-62.77629154 104.51079401 -61.31327045 101.28206191 -59.00490665 97.32617283 C-58.04282291 95.66110691 -58.04282291 95.66110691 -57.06130314 93.9624033 C-56.35774566 92.7658708 -55.65404726 91.56942115 -54.95021915 90.37304783 C-54.22285136 89.12112116 -53.49638408 87.8686709 -52.77077579 86.61572361 C-51.27646461 84.03828796 -49.77729085 81.46378132 -48.27394962 78.89160252 C-45.61228148 74.33501747 -42.98049759 69.76136346 -40.34865665 65.18750095 C-38.50182802 61.97912738 -36.65046162 58.77341231 -34.7978754 55.56836033 C-32.28020635 51.21164636 -29.76750672 46.85212348 -27.2588129 42.49023533 C-21.11919434 31.81942299 -14.95384188 21.16504711 -8.70021915 10.56054783 C-8.14640568 9.61985447 -7.5925922 8.67916111 -7.0219965 7.70996189 C-6.5162006 6.85499119 -6.0104047 6.00002048 -5.48928165 5.11914158 C-5.04536076 4.36818211 -4.60143986 3.61722263 -4.14406681 2.84350681 C-2.46844713 0.14636385 -2.46844713 0.14636385 0 0 Z " fill="#29242C" transform="translate(63.07521915435791,17.876952171325684)"/>
<path d="M0 0 C3.98496838 1.32832279 5.69144241 3.91983515 8.1875 7.125 C8.6721875 7.7452002 9.156875 8.36540039 9.65625 9.00439453 C14.64696127 15.57363222 18.455791 22.5702878 22 30 C22.34675781 30.71285156 22.69351563 31.42570312 23.05078125 32.16015625 C24.68921288 35.98316338 25.2607644 39.73597944 25.85961914 43.84741211 C26.9513932 51.01507548 28.26535999 55.37469372 34.00390625 60.14453125 C38.34620255 64.18091235 40.37464953 70.09103542 42.1875 75.625 C44.48299417 79.89936846 47.42445048 81.8244377 51.24609375 84.72265625 C62.31317989 93.87458706 72.20952313 109.06002255 76 123 C76.09375 125.77734375 76.09375 125.77734375 76 128 C58.74751964 132.5287761 38.72001519 133.25445319 22.171875 125.7578125 C18.48584921 124.4716812 15.78487142 125.17994453 12 126 C4.64406393 127.47118721 -2.57662038 127.78554747 -9.8125 125.6875 C-15.70068277 124.3120205 -20.2704243 126.49514126 -25.703125 128.73828125 C-33.0343765 131.54396162 -40.51028205 131.18331637 -48.25 131.1875 C-49.42691406 131.19974609 -50.60382813 131.21199219 -51.81640625 131.22460938 C-58.79256256 131.23624924 -65.22892492 130.71217013 -72 129 C-71.51176629 122.87301075 -70.12588081 118.19282259 -67.4375 112.6875 C-67.08324951 111.94910889 -66.72899902 111.21071777 -66.36401367 110.44995117 C-63.23073572 104.10801958 -59.44683103 98.50283229 -55 93 C-54.21625 91.948125 -53.4325 90.89625 -52.625 89.8125 C-50.18614535 87.19944145 -47.80545422 85.35595762 -44.9375 83.25 C-40.40338171 79.73538759 -38.6202585 76.8329828 -36.84765625 71.44921875 C-34.9696653 66.02294996 -31.75178757 61.72758218 -27.75 57.6875 C-24.47771428 54.0010009 -24.52169547 50.92597139 -24.3125 46.140625 C-22.60797305 29.01012914 -11.91011273 11.91011273 0 0 Z " fill="#ED0001" transform="translate(123,45)"/>
<path d="M0 0 C0.66 0 1.32 0 2 0 C3.54162553 2.07468269 4.94060657 4.12867539 6.3125 6.3125 C6.71476807 6.94969971 7.11703613 7.58689941 7.53149414 8.2434082 C13.07544451 17.181477 16.63984261 25.50445712 18 36 C17.45214844 35.855625 16.90429688 35.71125 16.33984375 35.5625 C5.60076863 33.04798485 -5.37114458 33.01646164 -16 36 C-14.55199562 22.67835973 -9.0119598 10.02792186 0 0 Z " fill="#2D242C" transform="translate(123,57)"/>
<path d="M0 0 C11.1301012 5.93078217 18.03888896 18.81671339 23 30 C23 30.99 23 31.98 23 33 C11.69143413 36.76952196 -3.8516322 34.53382224 -15 31 C-15 28 -15 28 -13.42578125 26.16015625 C-12.72839844 25.46792969 -12.03101563 24.77570313 -11.3125 24.0625 C-5.04439602 17.26188453 -2.214097 8.85638801 0 0 Z " fill="#2D242B" transform="translate(166,134)"/>
<path d="M0 0 C0.3403125 1.60875 0.3403125 1.60875 0.6875 3.25 C3.35317199 13.80005393 7.15669765 22.44940567 16 29 C16 29.66 16 30.32 16 31 C7.16981392 34.23055588 -1.13123319 34.12850189 -10.4375 34.0625 C-11.64599609 34.05798828 -12.85449219 34.05347656 -14.09960938 34.04882812 C-17.06645789 34.03710145 -20.0332027 34.02068896 -23 34 C-21.55797431 26.18486019 -9.97641494 0 0 0 Z " fill="#2C242C" transform="translate(84,134)"/>
<path d="M0 0 C5.2569889 -0.2905417 7.62829732 1.25697087 12 4 C12.64357727 13.97544768 9.78834862 21.53579356 3.50390625 29.30078125 C1.45838373 31.61195605 -0.30908006 33.45272104 -3 35 C-8.49968473 35.11701457 -11.16543791 32.5606648 -15 29 C-13.69379729 25.35671891 -12.10389221 22.62149956 -9.75 19.5625 C-5.36042808 13.47967602 -2.73363709 6.94924592 0 0 Z " fill="#2D242C" transform="translate(146,124)"/>
<path d="M0 0 C0.43699219 1.12535156 0.43699219 1.12535156 0.8828125 2.2734375 C4.79646522 12.04526222 9.75614479 20.55243119 16 29 C14.62312297 30.22989015 13.22264167 31.43339578 11.8125 32.625 C11.03519531 33.29789063 10.25789063 33.97078125 9.45703125 34.6640625 C7 36 7 36 4.44921875 35.421875 C-3.89920991 30.57525932 -8.49418428 23.19975538 -11 14 C-11.34072942 10.61040604 -11.33724993 7.38748815 -11 4 C-9.5437455 3.32880451 -8.08492133 2.66318193 -6.625 2 C-5.81289062 1.62875 -5.00078125 1.2575 -4.1640625 0.875 C-2 0 -2 0 0 0 Z " fill="#2D242B" transform="translate(103,124)"/>
<path d="M0 0 C0.54785156 0.28875 1.09570312 0.5775 1.66015625 0.875 C1.71438572 2.3120809 1.75305348 3.74975462 1.78515625 5.1875 C1.80835938 5.98800781 1.8315625 6.78851563 1.85546875 7.61328125 C1.66015625 9.875 1.66015625 9.875 -0.33984375 12.875 C-2.89379862 13.14211404 -5.20258749 13.22349029 -7.75390625 13.16796875 C-8.48354584 13.16372391 -9.21318542 13.15947906 -9.9649353 13.15510559 C-12.29861134 13.13829353 -14.63142815 13.10063868 -16.96484375 13.0625 C-18.54556046 13.04745634 -20.12629068 13.03376738 -21.70703125 13.02148438 C-25.58496719 12.98838201 -29.46225973 12.93658404 -33.33984375 12.875 C-34.38686561 9.1485915 -34.41426432 5.74486958 -34.33984375 1.875 C-23.27257443 -4.56748526 -11.70930306 -5.48338095 0 0 Z " fill="#30232B" transform="translate(140.33984375,101.125)"/>
<path d="M0 0 C0.97388672 -0.00128906 1.94777344 -0.00257812 2.95117188 -0.00390625 C3.96630859 -0.00003906 4.98144531 0.00382812 6.02734375 0.0078125 C7.04634766 0.00394531 8.06535156 0.00007813 9.11523438 -0.00390625 C10.08783203 -0.00261719 11.06042969 -0.00132813 12.0625 0 C12.95461182 0.00112793 13.84672363 0.00225586 14.76586914 0.00341797 C16.96484375 0.1328125 16.96484375 0.1328125 18.96484375 1.1328125 C16.68506334 9.53950277 12.42867436 20.15692542 4.96484375 25.1328125 C-8.03515625 7.74819712 -8.03515625 7.74819712 -8.03515625 1.1328125 C-5.06669911 0.14332679 -3.09695564 0.00391065 0 0 Z " fill="#2C242C" transform="translate(119.03515625,120.8671875)"/>
<path d="M0 0 C1.65 1.65 3.3 3.3 5 5 C4 6 4 6 1.49609375 6.09765625 C-0.01791016 6.08025391 -0.01791016 6.08025391 -1.5625 6.0625 C-2.57441406 6.05347656 -3.58632812 6.04445312 -4.62890625 6.03515625 C-5.41136719 6.02355469 -6.19382812 6.01195312 -7 6 C-2.25 1.125 -2.25 1.125 0 0 Z " fill="#3F2028" transform="translate(125,158)"/>
<path d="M0 0 C5.57142857 5.14285714 5.57142857 5.14285714 6 9 C4.02 8.34 2.04 7.68 0 7 C0 4.69 0 2.38 0 0 Z " fill="#491F25" transform="translate(149,109)"/>
<path d="M0 0 C2 3.75 2 3.75 2 6 C0.35 6.33 -1.3 6.66 -3 7 C-1.125 1.125 -1.125 1.125 0 0 Z " fill="#402027" transform="translate(98,111)"/>
</svg>
