<svg xmlns="http://www.w3.org/2000/svg" width="512" height="512" viewBox="0 0 512 512" version="1.1"><path d="M 201.462 31.366 C 194.758 34.487, 189.165 41.064, 183.203 52.835 C 175.679 67.690, 172.326 77.302, 169.065 93.367 L 167.468 101.235 162.123 103.229 C 156.160 105.453, 150.102 110.920, 147.118 116.768 C 140.411 129.915, 140.364 151.018, 147.006 166.513 C 148.103 169.072, 149 171.561, 149 172.044 C 149 173.568, 134.472 183.738, 126.834 187.561 C 117.014 192.475, 112.039 196.695, 108.471 203.136 C 105.918 207.746, 105.500 209.554, 105.500 216 C 105.500 222.132, 105.948 224.282, 107.954 227.786 L 110.409 232.072 108.612 240.286 C 98.823 285.045, 94.745 332.623, 98.480 358.500 C 103.779 395.215, 120.447 423.847, 146.668 441.279 C 159.270 449.657, 172.758 454, 186.174 454 C 193.994 454, 194.053 454.020, 199.534 458.485 C 209.305 466.443, 218.282 469.865, 231.585 470.702 C 246.990 471.672, 260.164 467.677, 271 458.750 L 276.500 454.219 304.500 453.731 C 328.911 453.306, 333.526 452.970, 340.500 451.112 C 372.516 442.580, 397.823 416.990, 406.243 384.632 C 407.865 378.401, 408.364 373.461, 408.379 363.500 C 408.401 348.931, 406.245 338.227, 400.926 326.497 L 397.986 320.014 402.094 315.906 C 408.264 309.736, 410.470 304.098, 410.470 294.500 C 410.470 288.448, 409.950 285.366, 408.333 281.844 C 405.731 276.176, 399.572 270.013, 393.998 267.499 C 390.610 265.971, 389.972 265.260, 390.467 263.567 C 394.971 248.174, 396.607 232.394, 394.997 219.896 C 390.802 187.338, 373.179 161.526, 340 139.344 C 329.145 132.087, 321.263 127.698, 295.800 114.733 C 283.315 108.375, 270.526 101.465, 267.381 99.377 C 249.367 87.420, 235.988 68.751, 232.582 50.819 C 230.796 41.416, 229.146 38.091, 224.271 34.069 C 217.538 28.515, 209.603 27.575, 201.462 31.366 M 206.729 48.092 C 204.611 49.325, 197.019 64.161, 192.442 76.012 C 186.275 91.981, 183.967 115.232, 187.306 127.750 C 188.369 131.733, 188.416 133, 187.504 133 C 185.818 133, 178.918 127.867, 175.939 124.399 C 171.480 119.205, 170.330 118.621, 167.160 119.934 C 165.523 120.612, 163.588 122.640, 162.599 124.715 C 160.360 129.410, 159.470 142.890, 160.896 150.500 C 162.042 156.613, 167.292 168.792, 171.067 174.094 C 172.216 175.708, 173.009 177.411, 172.828 177.878 C 172.531 178.646, 168.661 181.667, 148.002 197.254 C 144.428 199.951, 138.059 203.949, 133.848 206.140 C 122.772 211.903, 121.282 217.293, 128.760 224.556 L 132.266 227.960 129.219 237.230 C 118.799 268.938, 112.705 332.366, 117.452 359.722 C 121.154 381.058, 130.070 399.449, 143.855 414.186 C 151.297 422.141, 164.659 429.634, 174.982 431.641 L 177.465 432.123 174.982 429.315 C 173.617 427.770, 172.160 426.354, 171.744 426.168 C 171.328 425.982, 171.249 425.406, 171.568 424.890 C 171.887 424.373, 171.706 424.074, 171.165 424.225 C 170.624 424.376, 168.865 423.040, 167.256 421.255 C 165.647 419.471, 162.781 416.321, 160.887 414.255 C 151.114 403.599, 139.835 384.645, 135.580 371.726 C 131.275 358.656, 129.727 340.173, 130.828 315 C 132.091 286.131, 142.653 229.431, 146.342 231.712 C 146.874 232.040, 146.989 231.791, 146.598 231.158 C 145.783 229.840, 151.698 218.174, 155.767 213.074 C 160.850 206.701, 169.171 198.952, 174.850 195.301 C 181.825 190.818, 198.662 182.739, 205.857 180.424 C 211.447 178.625, 211.322 177.632, 205.388 176.704 C 203.676 176.437, 201.201 175.628, 199.888 174.907 C 198.575 174.186, 196.954 173.504, 196.286 173.392 C 194.404 173.075, 189 168.982, 189 167.873 C 189 167.328, 188.590 167.136, 188.088 167.446 C 187.091 168.062, 181 160.895, 181 159.106 C 181 158.498, 180.623 158, 180.162 158 C 178.672 158, 173.989 147.206, 173.344 142.283 L 172.718 137.500 175.109 139.640 C 181.461 145.324, 196.595 150.324, 211.139 151.545 L 219.500 152.246 216.736 149.304 C 215.216 147.685, 214.316 145.983, 214.736 145.520 C 215.156 145.058, 214.992 144.969, 214.372 145.323 C 212.352 146.476, 205.303 134.795, 202.409 125.500 C 199.696 116.787, 199.901 97.600, 202.835 85.654 C 205.866 73.315, 206.391 72.650, 208.377 78.631 C 211.900 89.237, 223.062 105.286, 233.638 114.952 C 243.378 123.854, 251.074 128.648, 278.127 142.665 C 324.493 166.688, 337.923 176.314, 350.209 194.332 C 358.744 206.849, 361.971 216.988, 361.988 231.346 C 362 240.882, 359.872 252, 358.036 252 C 357.146 252, 355.583 248.972, 355.841 247.750 C 355.929 247.337, 355.395 247, 354.655 247 C 353.915 247, 352.453 246.036, 351.405 244.859 C 348.310 241.380, 342.037 239.046, 335.718 239.022 C 324.287 238.979, 317.958 243.827, 311.537 257.549 C 307.532 266.108, 302.542 272.585, 297.128 276.253 C 294.983 277.706, 294.863 278.168, 295.878 281.079 C 297.263 285.054, 297.296 296.005, 295.939 301.888 C 292.087 318.600, 275.517 336.064, 256.887 343.048 L 250.500 345.442 256 346.755 C 263.054 348.439, 285.610 348.624, 293.882 347.066 C 297.392 346.405, 300.602 346.232, 301.016 346.682 C 302.384 348.172, 308.913 367.337, 311.513 377.497 C 315.105 391.532, 316.832 403.122, 317.603 418.359 C 318.208 430.331, 319.130 434.636, 320.863 433.596 C 321.213 433.386, 323.525 432.941, 326 432.606 C 339.572 430.769, 351.829 426.276, 359.762 420.230 L 363.024 417.744 362.762 380.642 L 362.500 343.540 352.456 338.020 C 346.932 334.984, 341.598 332.006, 340.603 331.402 C 338.979 330.417, 339.552 329.543, 346.169 322.902 C 358.033 310.998, 364 296.520, 364 279.639 C 364 271.393, 364.146 270.841, 367.850 265.111 C 369.967 261.835, 372.779 255.858, 374.100 251.828 C 376.203 245.407, 376.493 242.705, 376.440 230 C 376.386 217.014, 376.099 214.664, 373.695 207.500 C 366.531 186.152, 352.653 169.831, 327.500 153.176 C 322 149.535, 305.542 140.443, 290.927 132.972 C 276.313 125.502, 261.013 117.180, 256.927 114.479 C 237.223 101.451, 218.454 75.732, 214.981 57 C 214.219 52.895, 213.039 49.855, 211.777 48.750 C 209.478 46.737, 209.133 46.692, 206.729 48.092 M 257.519 221.541 C 241.140 227.771, 239.320 251.104, 254.542 259.725 C 257.426 261.359, 260.128 261.967, 264.500 261.967 C 271.960 261.967, 277.167 259.262, 281.458 253.155 C 284.220 249.227, 284.500 248.106, 284.500 241 C 284.500 233.913, 284.216 232.770, 281.500 228.925 C 276.271 221.523, 265.935 218.340, 257.519 221.541 M 174 221.918 C 162.593 224.300, 152.689 234.736, 149.034 248.227 C 147.163 255.133, 148.079 269.413, 150.720 274.513 C 155.327 283.407, 161.606 287.418, 171 287.466 C 197.280 287.603, 213.945 249.805, 196.635 229.328 C 191.793 223.601, 181.727 220.305, 174 221.918 M 267.200 228.200 C 265.065 230.335, 265.777 234.808, 268.541 236.619 C 273.580 239.921, 278.876 234.512, 275.560 229.451 C 273.806 226.774, 269.300 226.100, 267.200 228.200 M 331.500 252.719 C 328.173 253.530, 325.836 256.199, 322.939 262.500 C 321.421 265.800, 318.814 270.374, 317.145 272.664 C 313.988 276.999, 314.330 278, 318.967 278 C 319.959 278, 323.074 278.744, 325.890 279.653 C 335.266 282.682, 341.914 291.696, 342 301.500 L 342.044 306.500 343.985 304 C 350.479 295.633, 353.888 275.005, 350.629 263.797 C 348.434 256.247, 343.686 251.952, 337.715 252.116 C 335.397 252.180, 332.600 252.451, 331.500 252.719 M 376.248 288.250 C 371.597 293.233, 372.929 300.485, 378.953 302.980 C 387.528 306.532, 395.123 295.032, 388.545 288.455 C 385.255 285.164, 379.222 285.064, 376.248 288.250 M 309.172 298.500 C 307.411 310.678, 302.716 321.184, 295.660 328.735 C 293.997 330.514, 292.869 332.202, 293.153 332.486 C 294.151 333.485, 309.379 328.968, 313.851 326.347 C 319.561 323.001, 326.722 316.438, 328.577 312.852 C 330.658 308.827, 330.392 300.154, 328.070 296.347 C 326.427 293.652, 325.126 292.962, 319.126 291.597 C 315.265 290.719, 311.722 290, 311.253 290 C 310.784 290, 309.848 293.825, 309.172 298.500" stroke="none" fill="#f0f0ed" fill-rule="evenodd"/><path d="M 0 256.002 L 0 512.004 256.250 511.752 L 512.500 511.500 512.752 255.750 L 513.004 0 256.502 0 L 0 0 0 256.002 M 0.492 256.500 C 0.492 397.300, 0.608 454.751, 0.750 384.170 C 0.892 313.588, 0.892 198.388, 0.750 128.170 C 0.608 57.951, 0.492 115.700, 0.492 256.500 M 201.462 31.366 C 194.758 34.487, 189.165 41.064, 183.203 52.835 C 175.679 67.690, 172.326 77.302, 169.065 93.367 L 167.468 101.235 162.123 103.229 C 156.160 105.453, 150.102 110.920, 147.118 116.768 C 140.411 129.915, 140.364 151.018, 147.006 166.513 C 148.103 169.072, 149 171.561, 149 172.044 C 149 173.568, 134.472 183.738, 126.834 187.561 C 117.014 192.475, 112.039 196.695, 108.471 203.136 C 105.918 207.746, 105.500 209.554, 105.500 216 C 105.500 222.132, 105.948 224.282, 107.954 227.786 L 110.409 232.072 108.612 240.286 C 98.823 285.045, 94.745 332.623, 98.480 358.500 C 103.779 395.215, 120.447 423.847, 146.668 441.279 C 159.270 449.657, 172.758 454, 186.174 454 C 193.994 454, 194.053 454.020, 199.534 458.485 C 209.305 466.443, 218.282 469.865, 231.585 470.702 C 246.990 471.672, 260.164 467.677, 271 458.750 L 276.500 454.219 304.500 453.731 C 328.911 453.306, 333.526 452.970, 340.500 451.112 C 372.516 442.580, 397.823 416.990, 406.243 384.632 C 407.865 378.401, 408.364 373.461, 408.379 363.500 C 408.401 348.931, 406.245 338.227, 400.926 326.497 L 397.986 320.014 402.094 315.906 C 408.264 309.736, 410.470 304.098, 410.470 294.500 C 410.470 288.448, 409.950 285.366, 408.333 281.844 C 405.731 276.176, 399.572 270.013, 393.998 267.499 C 390.610 265.971, 389.972 265.260, 390.467 263.567 C 394.971 248.174, 396.607 232.394, 394.997 219.896 C 390.802 187.338, 373.179 161.526, 340 139.344 C 329.145 132.087, 321.263 127.698, 295.800 114.733 C 283.315 108.375, 270.526 101.465, 267.381 99.377 C 249.367 87.420, 235.988 68.751, 232.582 50.819 C 230.796 41.416, 229.146 38.091, 224.271 34.069 C 217.538 28.515, 209.603 27.575, 201.462 31.366 M 206.729 48.092 C 204.611 49.325, 197.019 64.161, 192.442 76.012 C 186.275 91.981, 183.967 115.232, 187.306 127.750 C 188.369 131.733, 188.416 133, 187.504 133 C 185.818 133, 178.918 127.867, 175.939 124.399 C 171.480 119.205, 170.330 118.621, 167.160 119.934 C 165.523 120.612, 163.588 122.640, 162.599 124.715 C 160.360 129.410, 159.470 142.890, 160.896 150.500 C 162.042 156.613, 167.292 168.792, 171.067 174.094 C 172.216 175.708, 173.009 177.411, 172.828 177.878 C 172.531 178.646, 168.661 181.667, 148.002 197.254 C 144.428 199.951, 138.059 203.949, 133.848 206.140 C 122.772 211.903, 121.282 217.293, 128.760 224.556 L 132.266 227.960 129.219 237.230 C 118.799 268.938, 112.705 332.366, 117.452 359.722 C 121.154 381.058, 130.070 399.449, 143.855 414.186 C 151.297 422.141, 164.659 429.634, 174.982 431.641 L 177.465 432.123 174.982 429.315 C 173.617 427.770, 172.160 426.354, 171.744 426.168 C 171.328 425.982, 171.249 425.406, 171.568 424.890 C 171.887 424.373, 171.706 424.074, 171.165 424.225 C 170.624 424.376, 168.865 423.040, 167.256 421.255 C 165.647 419.471, 162.781 416.321, 160.887 414.255 C 151.114 403.599, 139.835 384.645, 135.580 371.726 C 131.275 358.656, 129.727 340.173, 130.828 315 C 132.091 286.131, 142.653 229.431, 146.342 231.712 C 146.874 232.040, 146.989 231.791, 146.598 231.158 C 145.783 229.840, 151.698 218.174, 155.767 213.074 C 160.850 206.701, 169.171 198.952, 174.850 195.301 C 181.825 190.818, 198.662 182.739, 205.857 180.424 C 211.447 178.625, 211.322 177.632, 205.388 176.704 C 203.676 176.437, 201.201 175.628, 199.888 174.907 C 198.575 174.186, 196.954 173.504, 196.286 173.392 C 194.404 173.075, 189 168.982, 189 167.873 C 189 167.328, 188.590 167.136, 188.088 167.446 C 187.091 168.062, 181 160.895, 181 159.106 C 181 158.498, 180.623 158, 180.162 158 C 178.672 158, 173.989 147.206, 173.344 142.283 L 172.718 137.500 175.109 139.640 C 181.461 145.324, 196.595 150.324, 211.139 151.545 L 219.500 152.246 216.736 149.304 C 215.216 147.685, 214.316 145.983, 214.736 145.520 C 215.156 145.058, 214.992 144.969, 214.372 145.323 C 212.352 146.476, 205.303 134.795, 202.409 125.500 C 199.696 116.787, 199.901 97.600, 202.835 85.654 C 205.866 73.315, 206.391 72.650, 208.377 78.631 C 211.900 89.237, 223.062 105.286, 233.638 114.952 C 243.378 123.854, 251.074 128.648, 278.127 142.665 C 324.493 166.688, 337.923 176.314, 350.209 194.332 C 358.744 206.849, 361.971 216.988, 361.988 231.346 C 362 240.882, 359.872 252, 358.036 252 C 357.146 252, 355.583 248.972, 355.841 247.750 C 355.929 247.337, 355.395 247, 354.655 247 C 353.915 247, 352.453 246.036, 351.405 244.859 C 348.310 241.380, 342.037 239.046, 335.718 239.022 C 324.287 238.979, 317.958 243.827, 311.537 257.549 C 307.532 266.108, 302.542 272.585, 297.128 276.253 C 294.983 277.706, 294.863 278.168, 295.878 281.079 C 297.263 285.054, 297.296 296.005, 295.939 301.888 C 292.087 318.600, 275.517 336.064, 256.887 343.048 L 250.500 345.442 256 346.755 C 263.054 348.439, 285.610 348.624, 293.882 347.066 C 297.392 346.405, 300.602 346.232, 301.016 346.682 C 302.384 348.172, 308.913 367.337, 311.513 377.497 C 315.105 391.532, 316.832 403.122, 317.603 418.359 C 318.208 430.331, 319.130 434.636, 320.863 433.596 C 321.213 433.386, 323.525 432.941, 326 432.606 C 339.572 430.769, 351.829 426.276, 359.762 420.230 L 363.024 417.744 362.762 380.642 L 362.500 343.540 352.456 338.020 C 346.932 334.984, 341.598 332.006, 340.603 331.402 C 338.979 330.417, 339.552 329.543, 346.169 322.902 C 358.033 310.998, 364 296.520, 364 279.639 C 364 271.393, 364.146 270.841, 367.850 265.111 C 369.967 261.835, 372.779 255.858, 374.100 251.828 C 376.203 245.407, 376.493 242.705, 376.440 230 C 376.386 217.014, 376.099 214.664, 373.695 207.500 C 366.531 186.152, 352.653 169.831, 327.500 153.176 C 322 149.535, 305.542 140.443, 290.927 132.972 C 276.313 125.502, 261.013 117.180, 256.927 114.479 C 237.223 101.451, 218.454 75.732, 214.981 57 C 214.219 52.895, 213.039 49.855, 211.777 48.750 C 209.478 46.737, 209.133 46.692, 206.729 48.092 M 257.519 221.541 C 241.140 227.771, 239.320 251.104, 254.542 259.725 C 257.426 261.359, 260.128 261.967, 264.500 261.967 C 271.960 261.967, 277.167 259.262, 281.458 253.155 C 284.220 249.227, 284.500 248.106, 284.500 241 C 284.500 233.913, 284.216 232.770, 281.500 228.925 C 276.271 221.523, 265.935 218.340, 257.519 221.541 M 174 221.918 C 162.593 224.300, 152.689 234.736, 149.034 248.227 C 147.163 255.133, 148.079 269.413, 150.720 274.513 C 155.327 283.407, 161.606 287.418, 171 287.466 C 197.280 287.603, 213.945 249.805, 196.635 229.328 C 191.793 223.601, 181.727 220.305, 174 221.918 M 267.200 228.200 C 265.065 230.335, 265.777 234.808, 268.541 236.619 C 273.580 239.921, 278.876 234.512, 275.560 229.451 C 273.806 226.774, 269.300 226.100, 267.200 228.200 M 331.500 252.719 C 328.173 253.530, 325.836 256.199, 322.939 262.500 C 321.421 265.800, 318.814 270.374, 317.145 272.664 C 313.988 276.999, 314.330 278, 318.967 278 C 319.959 278, 323.074 278.744, 325.890 279.653 C 335.266 282.682, 341.914 291.696, 342 301.500 L 342.044 306.500 343.985 304 C 350.479 295.633, 353.888 275.005, 350.629 263.797 C 348.434 256.247, 343.686 251.952, 337.715 252.116 C 335.397 252.180, 332.600 252.451, 331.500 252.719 M 376.248 288.250 C 371.597 293.233, 372.929 300.485, 378.953 302.980 C 387.528 306.532, 395.123 295.032, 388.545 288.455 C 385.255 285.164, 379.222 285.064, 376.248 288.250 M 309.172 298.500 C 307.411 310.678, 302.716 321.184, 295.660 328.735 C 293.997 330.514, 292.869 332.202, 293.153 332.486 C 294.151 333.485, 309.379 328.968, 313.851 326.347 C 319.561 323.001, 326.722 316.438, 328.577 312.852 C 330.658 308.827, 330.392 300.154, 328.070 296.347 C 326.427 293.652, 325.126 292.962, 319.126 291.597 C 315.265 290.719, 311.722 290, 311.253 290 C 310.784 290, 309.848 293.825, 309.172 298.500" stroke="none" fill="#0b0a17" fill-rule="evenodd"/></svg>