<?xml version="1.0" encoding="UTF-8"?>
<svg version="1.1" xmlns="http://www.w3.org/2000/svg" width="200" height="200">
<path d="M0 0 C20.72975994 15.66576694 35.21424569 38.77153389 39.31542969 64.51757812 C42.68771287 92.40511107 36.62509777 118.77423885 19.64501953 141.24316406 C4.21868369 160.56380816 -19.00000149 175.94723003 -43.97216797 179.02783203 C-72.67802843 181.6219477 -99.18548148 176.14569585 -121.98046875 157.9453125 C-141.48198145 141.64536272 -155.38068067 118.73401491 -158.35498047 93.24316406 C-160.43112085 63.93680347 -154.65057291 37.64621794 -135.53466797 14.79785156 C-101.32408956 -24.4725945 -41.99924407 -30.20804525 0 0 Z " fill="#0FB838" transform="translate(160.35498046875,20.7568359375)"/>
<path d="M0 0 C0.66 0 1.32 0 2 0 C2.495 10.395 2.495 10.395 3 21 C6.96 19.515 6.96 19.515 11 18 C16.3390238 17.48027202 20.57790273 18.55659797 25.5 20.5 C26.18344482 20.76192139 26.86688965 21.02384277 27.57104492 21.29370117 C33.97538505 23.83060452 39.98388316 27.00399245 45.98828125 30.36328125 C48.92111036 32.07100457 48.92111036 32.07100457 52 33 C51.8349572 33.90505028 51.8349572 33.90505028 51.6665802 34.8283844 C50.64332578 41.82577214 51.71267763 46.69460809 54.26171875 53.21484375 C54.60878372 54.15123184 54.95584869 55.08761993 55.31343079 56.05238342 C56.41892413 59.02171031 57.55243404 61.97936877 58.6875 64.9375 C59.43094216 66.91790544 60.17249548 68.89902103 60.91210938 70.88085938 C62.28350895 74.54873888 63.66617693 78.21192489 65.0612793 81.87084961 C66.46863732 85.58314782 67.86698934 89.29856069 69.24536133 93.02172852 C69.58118729 93.92609146 69.91701324 94.83045441 70.26301575 95.76222229 C71 98 71 98 71 100 C71.99 100.33 72.98 100.66 74 101 C64.77753752 109.98263485 56.41775496 114.42824118 43.41796875 114.26953125 C33.78609797 113.50998944 27.67287604 108.64063993 21 102 C21.66 101.67 22.32 101.34 23 101 C23.34159684 99.00139481 23.67257274 97.00097539 24 95 C24.94014048 91.94854074 26.05642166 88.96531418 27.16796875 85.97265625 C27.48526443 85.1066832 27.80256012 84.24071014 28.12947083 83.34849548 C28.80200985 81.51616589 29.47708962 79.68476712 30.15454102 77.85424805 C31.17186487 75.1047566 32.18136963 72.35250029 33.18945312 69.59960938 C36.96157836 59.33036979 40.8629189 49.12811173 45 39 C44.37416016 38.96261719 43.74832031 38.92523438 43.10351562 38.88671875 C35.06234275 38.29280156 27.36176631 36.74705918 19.5 35 C18.23929687 34.72671875 16.97859375 34.4534375 15.6796875 34.171875 C6.50194099 32.16731366 6.50194099 32.16731366 3 31 C3.1539624 31.76723389 3.3079248 32.53446777 3.46655273 33.32495117 C4.16649449 38.14702132 4.3478539 42.93512645 4.53515625 47.80078125 C4.59935005 49.38718918 4.59935005 49.38718918 4.6648407 51.00564575 C4.75494301 53.26937724 4.84287482 55.53319598 4.92883301 57.79708862 C5.01812451 60.14543466 5.11001329 62.49368335 5.20446777 64.84182739 C5.66961698 76.43093006 6.11741976 88.0020111 5.91796875 99.6015625 C5.90641251 100.37652573 5.89485626 101.15148895 5.88294983 101.94993591 C5.82454794 105.45797103 5.72946389 108.95903293 5.57446289 112.46411133 C5.19938412 118.45100733 5.19938412 118.45100733 7.23706055 123.86767578 C8.96755265 125.4519507 8.96755265 125.4519507 12 127 C13.093125 127.66 14.18625 128.32 15.3125 129 C22.13835245 132.27211787 29.73012821 133.98426282 37 136 C37 136.33 37 136.66 37 137 C12.58 137 -11.84 137 -37 137 C-33 135 -33 135 -29.5625 134.1875 C-20.38035177 131.99963354 -10.78446985 128.78446985 -4 122 C-3.67696134 120.01872368 -3.67696134 120.01872368 -3.69702148 117.71923828 C-3.68034424 116.82779114 -3.66366699 115.93634399 -3.64648438 115.0178833 C-3.63391602 113.55883575 -3.63391602 113.55883575 -3.62109375 112.0703125 C-3.59607788 110.55567413 -3.59607788 110.55567413 -3.57055664 109.01043701 C-3.51760849 105.71536027 -3.47770345 102.42025455 -3.4375 99.125 C-3.36868744 94.63013946 -3.29341791 90.13539154 -3.21875 85.640625 C-3.2013829 84.53689545 -3.18401581 83.43316589 -3.16612244 82.29598999 C-3.0286326 73.81656332 -2.78064599 65.34853107 -2.4375 56.875 C-2.08052545 47.90668052 -1.89253568 38.97494979 -2 30 C-2.67353516 29.86948242 -3.34707031 29.73896484 -4.04101562 29.60449219 C-17.12302986 27.05853781 -30.10974349 24.39206038 -43 21 C-42.58532471 22.04921631 -42.17064941 23.09843262 -41.7434082 24.17944336 C-38.41587085 32.64329674 -35.18941632 41.13560446 -32.10546875 49.69140625 C-31.62220627 51.02949844 -31.62220627 51.02949844 -31.12918091 52.3946228 C-29.80661565 56.06022296 -28.4861783 59.72653206 -27.17504883 63.39624023 C-26.1999331 66.12198716 -25.21596565 68.84439862 -24.23046875 71.56640625 C-23.78673164 72.81920128 -23.78673164 72.81920128 -23.33403015 74.0973053 C-22.11261859 78.29704999 -22.11261859 78.29704999 -19 81 C-21.7666368 87.53547367 -28.67389074 91.32897609 -35 94 C-44.64223427 96.2942421 -53.84927974 95.58465544 -62.453125 90.5703125 C-65.91076675 88.32842221 -69.28773643 86.13872011 -72 83 C-72 82.34 -72 81.68 -72 81 C-71.01 81 -70.02 81 -69 81 C-68.79246094 79.85660156 -68.58492187 78.71320313 -68.37109375 77.53515625 C-66.68262579 69.94521806 -63.75991918 62.7134228 -61.0625 55.4375 C-60.51836254 53.95657031 -59.97473901 52.47545169 -59.43164062 50.99414062 C-52.7344167 32.75441387 -52.7344167 32.75441387 -49.8125 25.5 C-49.46832031 24.6440625 -49.12414062 23.788125 -48.76953125 22.90625 C-48.38861328 21.96265625 -48.38861328 21.96265625 -48 21 C-49.32 20.34 -50.64 19.68 -52 19 C-52.04254356 17.00045254 -52.04080783 14.99958364 -52 13 C-48.96783731 9.96783731 -37.994092 11.26078943 -33.66503906 11.09960938 C-31.98705763 11.03689259 -30.30926416 10.96866765 -28.63183594 10.89257812 C-19.640981 10.50184474 -11.39594499 10.28616092 -4.26953125 16.51171875 C-3 18 -3 18 -3 20 C-2.34 20 -1.68 20 -1 20 C-0.67 13.4 -0.34 6.8 0 0 Z " fill="#F5FBF6" transform="translate(99,26)"/>
<path d="M0 0 C20.72975994 15.66576694 35.21424569 38.77153389 39.31542969 64.51757812 C42.68771287 92.40511107 36.62509777 118.77423885 19.64501953 141.24316406 C4.21868369 160.56380816 -19.00000149 175.94723003 -43.97216797 179.02783203 C-72.67802843 181.6219477 -99.18548148 176.14569585 -121.98046875 157.9453125 C-141.48198145 141.64536272 -155.38068067 118.73401491 -158.35498047 93.24316406 C-160.43112085 63.93680347 -154.65057291 37.64621794 -135.53466797 14.79785156 C-101.32408956 -24.4725945 -41.99924407 -30.20804525 0 0 Z M-127.91357422 18.40332031 C-136.87361507 28.82563983 -142.88008716 40.29606779 -147.35498047 53.24316406 C-147.71591797 54.26152344 -148.07685547 55.27988281 -148.44873047 56.32910156 C-154.86199564 78.47861925 -150.2301692 102.86667572 -139.39013672 122.72363281 C-127.01126761 144.48413661 -108.07948209 159.26395848 -84.19091797 166.50097656 C-59.92599681 172.85130028 -36.03822353 168.99009629 -14.22998047 157.05566406 C7.07714628 143.99645735 20.54000197 124.79535698 27.77001953 101.12207031 C33.22607409 76.93518562 29.49574398 52.38970658 16.64501953 31.24316406 C2.59127202 9.75665839 -17.40816752 -4.00638414 -42.35498047 -9.75683594 C-74.6834145 -14.81952827 -105.09175272 -5.37093676 -127.91357422 18.40332031 Z " fill="#00A24E" transform="translate(160.35498046875,20.7568359375)"/>
<path d="M0 0 C0.66 0 1.32 0 2 0 C2.23074219 0.72703125 2.46148437 1.4540625 2.69921875 2.203125 C3.18841797 3.71132812 3.18841797 3.71132812 3.6875 5.25 C4.00074219 6.22453125 4.31398437 7.1990625 4.63671875 8.203125 C5.71604718 11.34599199 6.98680919 14.389139 8.28125 17.44921875 C11.07278101 24.0826517 13.60227551 30.80185062 16.0769043 37.55786133 C16.82382356 39.59335887 17.57877487 41.62576893 18.33398438 43.65820312 C18.81298581 44.96075895 19.29151957 46.26348688 19.76953125 47.56640625 C20.19854736 48.73115479 20.62756348 49.89590332 21.06958008 51.09594727 C22 54 22 54 22 57 C8.14 57 -5.72 57 -20 57 C-19.33440322 53.00641932 -18.83002058 50.13030344 -17.46533203 46.49853516 C-17.15475861 45.66391754 -16.84418518 44.82929993 -16.52420044 43.96939087 C-16.18879242 43.08488251 -15.8533844 42.20037415 -15.5078125 41.2890625 C-15.16120575 40.36209564 -14.814599 39.43512878 -14.45748901 38.48007202 C-13.35174618 35.52644434 -12.23850268 32.57570984 -11.125 29.625 C-10.38361622 27.64862437 -9.64272571 25.67206364 -8.90234375 23.6953125 C-7.23355462 19.24285302 -5.55941954 14.79243809 -3.88238525 10.34307861 C-2.58453514 6.896778 -1.29211125 3.44845593 0 0 Z " fill="#13B539" transform="translate(145,69)"/>
<path d="M0 0 C2.59967856 2.59967856 3.25368549 5.44841581 4.3125 8.875 C5.78547917 13.56308653 7.41569665 18.06542511 9.3359375 22.58984375 C12.26889141 29.52754436 14.80216773 36.58790844 17.3125 43.6875 C17.77122767 44.9733989 18.23021086 46.25920667 18.68945312 47.54492188 C22 56.85925752 22 56.85925752 22 58 C7.81 58 -6.38 58 -21 58 C-12.89473684 34.84210526 -12.89473684 34.84210526 -9.25 24.75 C-8.87746094 23.71488281 -8.50492188 22.67976563 -8.12109375 21.61328125 C-5.51048001 14.37182618 -2.89767714 7.13274374 0 0 Z " fill="#13BA3B" transform="translate(53,49)"/>
<path d="M0 0 C2.87024286 2.87024286 3.7326175 6.40485805 5.046875 10.1640625 C5.48740204 11.40136612 5.48740204 11.40136612 5.93682861 12.66366577 C6.87991716 15.31557586 7.8152573 17.97013799 8.75 20.625 C11.15561619 27.42061197 13.57024966 34.21297844 16 41 C16.28721924 41.80433472 16.57443848 42.60866943 16.87036133 43.43737793 C17.68147996 45.6982867 18.50289598 47.95514679 19.328125 50.2109375 C19.56956238 50.88710114 19.81099976 51.56326477 20.05975342 52.25991821 C21.19081312 55.81310551 21.19081312 55.81310551 24 58 C21.2333632 64.53547367 14.32610926 68.32897609 8 71 C-1.64223427 73.2942421 -10.84927974 72.58465544 -19.453125 67.5703125 C-22.91076675 65.32842221 -26.28773643 63.13872011 -29 60 C-29 59.34 -29 58.68 -29 58 C-28.01 58 -27.02 58 -26 58 C-25.68869141 56.28490234 -25.68869141 56.28490234 -25.37109375 54.53515625 C-23.68262579 46.94521806 -20.75991918 39.7134228 -18.0625 32.4375 C-17.51836254 30.95657031 -16.97473901 29.47545169 -16.43164062 27.99414062 C-9.23504819 8.39439586 -9.23504819 8.39439586 -6 1 C-5.01 1.33 -4.02 1.66 -3 2 C-4.42661464 7.24251884 -6.05802975 12.2924752 -8.21875 17.28125 C-11.54367632 25.16571037 -14.41468015 33.20152739 -17.3125 41.25 C-19.189375 46.4475 -21.06625 51.645 -23 57 C-9.47 57 4.06 57 18 57 C16.288125 52.153125 14.57625 47.30625 12.8125 42.3125 C12.28374268 40.81243408 11.75498535 39.31236816 11.21020508 37.7668457 C7.9825659 28.65051689 4.74978354 19.52316053 0.99194336 10.60864258 C-0.62166707 6.68390215 -1.40843077 4.09725314 0 0 Z " fill="#F0FAF2" transform="translate(56,49)"/>
<path d="M0 0 C17.15458212 9.67003495 28.70884508 30.78993119 33.92236328 49.23657227 C41.02443743 76.1335744 37.70906236 103.62060571 23.93359375 127.6875 C10.02641351 150.89556025 -11.76311217 166.16383379 -37.3671875 174.03515625 C-63.77240344 180.47180186 -91.39260866 175.70648284 -114.48657227 161.85449219 C-121.74369297 157.30912128 -132.08947175 150.8210565 -136 143 C-132.33275807 144.54277074 -130.01063491 146.79140444 -127.1875 149.5625 C-117.32205847 158.65289352 -105.80283928 164.99266711 -93 169 C-91.78699219 169.391875 -90.57398438 169.78375 -89.32421875 170.1875 C-63.40191925 177.79674146 -37.5050542 172.74074268 -14.12890625 160.49609375 C8.37146148 147.61366792 23.12400187 127.07782637 30.9921875 102.73046875 C35.96987215 84.3053182 36.10261761 64.18159177 30 46 C29.79101074 45.360625 29.58202148 44.72125 29.36669922 44.0625 C24.22439547 28.77810952 14.86359298 12.97880695 1.67578125 3.29296875 C0.84626953 2.65294922 0.84626953 2.65294922 0 2 C0 1.34 0 0.68 0 0 Z " fill="#000904" transform="translate(163,24)"/>
<path d="M0 0 C0.33 1.32 0.66 2.64 1 4 C15.19 4 29.38 4 44 4 C44.33 3.34 44.66 2.68 45 2 C46.32 2.66 47.64 3.32 49 4 C39.77753752 12.98263485 31.41775496 17.42824118 18.41796875 17.26953125 C8.78609797 16.50998944 2.67287604 11.64063993 -4 5 C-3.34 4.67 -2.68 4.34 -2 4 C-2 3.01 -2 2.02 -2 1 C-1.34 0.67 -0.68 0.34 0 0 Z " fill="#F9FCFA" transform="translate(124,123)"/>
<path d="M0 0 C0.99 0.33 1.98 0.66 3 1 C1.57338536 6.24251884 -0.05802975 11.2924752 -2.21875 16.28125 C-5.5433728 24.16499061 -8.41553132 32.20218427 -11.3125 40.25 C-11.86757275 41.78525237 -12.42290965 43.32040927 -12.97851562 44.85546875 C-14.32204992 48.56922182 -15.66203176 52.28423819 -17 56 C-17.99 56 -18.98 56 -20 56 C-17.78337659 47.03413243 -14.723376 38.45042332 -11.5 29.8125 C-11.00868983 28.48518319 -10.51780227 27.15770987 -10.02734375 25.83007812 C-8.69138294 22.21762566 -7.34654717 18.60852077 -6 15 C-5.68571045 14.15356934 -5.3714209 13.30713867 -5.04760742 12.43505859 C-3.48169838 8.22914074 -1.79817139 4.11010602 0 0 Z " fill="#E3F6E8" transform="translate(50,50)"/>
<path d="M0 0 C1.32 0.66 2.64 1.32 4 2 C3.34 2 2.68 2 2 2 C1.86697983 2.73162354 1.73395966 3.46324707 1.59690857 4.21704102 C1.04977205 6.7679484 0.34331412 9.08055055 -0.55053711 11.52734375 C-1.02123878 12.82393921 -1.02123878 12.82393921 -1.50144958 14.14672852 C-1.83999466 15.06768311 -2.17853973 15.9886377 -2.52734375 16.9375 C-2.87632217 17.89519287 -3.2253006 18.85288574 -3.58485413 19.83959961 C-4.69902569 22.89431168 -5.81829092 25.94713053 -6.9375 29 C-7.68716331 31.05457283 -8.43651573 33.10925912 -9.18554688 35.1640625 C-13.02805392 45.68932332 -13.02805392 45.68932332 -14.21871948 48.88330078 C-14.85202554 50.59909737 -15.45183903 52.32723079 -16.04125977 54.05859375 C-16.35764404 54.69925781 -16.67402832 55.33992188 -17 56 C-18.485 56.495 -18.485 56.495 -20 57 C-19.38506317 53.59559109 -18.5381512 50.44742948 -17.35766602 47.19726562 C-17.02384415 46.2728064 -16.69002228 45.34834717 -16.34608459 44.39587402 C-15.98566574 43.4092981 -15.62524689 42.42272217 -15.25390625 41.40625 C-14.88273178 40.38196899 -14.51155731 39.35768799 -14.12913513 38.30236816 C-12.94359604 35.03368865 -11.75301088 31.76687152 -10.5625 28.5 C-9.76466431 26.30089356 -8.96713481 24.10167602 -8.16992188 21.90234375 C-7.40652312 19.79938 -6.64286008 17.69651217 -5.87890625 15.59375 C-5.52051163 14.60717407 -5.162117 13.62059814 -4.79286194 12.60412598 C-4.28740089 11.21743713 -4.28740089 11.21743713 -3.77172852 9.80273438 C-3.47718277 8.99396851 -3.18263702 8.18520264 -2.87916565 7.35192871 C-1.95712206 4.88529368 -0.9868929 2.44133178 0 0 Z " fill="#E2F5E7" transform="translate(143,67)"/>
<path d="M0 0 C2.89242645 2.89242645 3.75808038 6.48053046 5.08203125 10.26953125 C5.37808762 11.10151535 5.67414398 11.93349945 5.97917175 12.79069519 C6.9289848 15.46276102 7.87107567 18.1374684 8.8125 20.8125 C10.04567536 24.2990668 11.28221655 27.78443162 12.51953125 31.26953125 C12.81747589 32.11146027 13.11542053 32.95338928 13.4223938 33.8208313 C15.55342468 39.81889929 17.80120253 45.75752651 20.15893555 51.6706543 C21 54 21 54 21 56 C19.515 56.495 19.515 56.495 18 57 C17.69296143 56.12899658 17.38592285 55.25799316 17.06958008 54.3605957 C15.90616098 51.06303994 14.74108172 47.76607985 13.57495117 44.46948242 C13.07495799 43.05499643 12.57558716 41.64029027 12.0769043 40.2253418 C6.83021047 25.304764 6.83021047 25.304764 0.99194336 10.60864258 C-0.62166707 6.68390215 -1.40843077 4.09725314 0 0 Z " fill="#E2F5E6" transform="translate(56,49)"/>
<path d="M0 0 C1.485 0.495 1.485 0.495 3 1 C4.36621094 3.83569336 4.36621094 3.83569336 5.734375 7.58984375 C5.97665833 8.2495668 6.21894165 8.90928986 6.46856689 9.58900452 C6.97826768 10.9849679 7.48225494 12.38302867 7.98095703 13.78295898 C8.7475189 15.93054897 9.53432755 18.06988025 10.32421875 20.20898438 C13.10052104 27.85725777 13.10052104 27.85725777 14 31 C13 33 13 33 12 34 C10.64905018 34.09268999 9.29332909 34.11747326 7.93920898 34.11352539 C7.07839218 34.11344986 6.21757538 34.11337433 5.33067322 34.11329651 C4.39526199 34.10813522 3.45985077 34.10297394 2.49609375 34.09765625 C1.54307877 34.0962413 0.59006378 34.09482635 -0.39183044 34.09336853 C-3.44875165 34.08775152 -6.50560077 34.07519616 -9.5625 34.0625 C-11.62955624 34.05748719 -13.69661362 34.05292391 -15.76367188 34.04882812 C-20.84247588 34.03777656 -25.9212257 34.02050055 -31 34 C-31 33.67 -31 33.34 -31 33 C-17.14 33 -3.28 33 11 33 C7.38520228 23.26010484 7.38520228 23.26010484 3.75976562 13.52416992 C3.31310547 12.31349854 2.86644531 11.10282715 2.40625 9.85546875 C2.04998535 8.90685974 2.04998535 8.90685974 1.68652344 7.93908691 C0.65714576 5.13336431 0 3.01748205 0 0 Z " fill="#ACE2B9" transform="translate(156,93)"/>
<path d="M0 0 C1.70512741 2.55769112 2.68063145 4.53999311 3.7265625 7.37890625 C4.0359375 8.21744141 4.3453125 9.05597656 4.6640625 9.91992188 C4.98117188 10.79197266 5.29828125 11.66402344 5.625 12.5625 C5.94984375 13.43841797 6.2746875 14.31433594 6.609375 15.21679688 C9 21.74079241 9 21.74079241 9 24 C8.01 24 7.02 24 6 24 C5.01388849 21.46083825 4.03599124 18.9189977 3.0625 16.375 C2.78470703 15.66214844 2.50691406 14.94929688 2.22070312 14.21484375 C0.67923953 10.16618033 -0.58865024 6.34855456 -1 2 C-0.67 1.34 -0.34 0.68 0 0 Z " fill="#DCF3E1" transform="translate(149,69)"/>
<path d="M0 0 C0.66 0.33 1.32 0.66 2 1 C-6.22549676 9.66354097 -6.22549676 9.66354097 -11 12 C-14.375 11.25 -14.375 11.25 -17 10 C-17 9.67 -17 9.34 -17 9 C-16.41992188 8.82984375 -15.83984375 8.6596875 -15.2421875 8.484375 C-9.20651626 6.61192254 -4.5316432 4.5316432 0 0 Z " fill="#1EA33E" transform="translate(76,111)"/>
<path d="M0 0 C4.95 0.99 4.95 0.99 10 2 C9.67 2.66 9.34 3.32 9 4 C7.35 4 5.7 4 4 4 C3.34 6.64 2.68 9.28 2 12 C1.67 12 1.34 12 1 12 C0.67 8.04 0.34 4.08 0 0 Z " fill="#17B03C" transform="translate(102,57)"/>
<path d="M0 0 C0.99 0.33 1.98 0.66 3 1 C4.16796875 3.36328125 4.16796875 3.36328125 5.1875 6.3125 C5.53167969 7.27800781 5.87585938 8.24351563 6.23046875 9.23828125 C7 12 7 12 7 16 C6.34 16 5.68 16 5 16 C4.1605118 13.89828133 3.32860344 11.79353375 2.5 9.6875 C2.0359375 8.51574219 1.571875 7.34398438 1.09375 6.13671875 C0 3 0 3 0 0 Z " fill="#E9F7EC" transform="translate(156,93)"/>
<path d="M0 0 C4.95 0 9.9 0 15 0 C14.67 0.99 14.34 1.98 14 3 C10.7 3 7.4 3 4 3 C4 2.34 4 1.68 4 1 C2.68 1.33 1.36 1.66 0 2 C0 1.34 0 0.68 0 0 Z " fill="#0DA030" transform="translate(46,121)"/>
<path d="M0 0 C0.99 0.33 1.98 0.66 3 1 C2.01 4.3 1.02 7.6 0 11 C-0.99 10.34 -1.98 9.68 -3 9 C-2.01 6.03 -1.02 3.06 0 0 Z " fill="#D6F3DD" transform="translate(50,50)"/>
<path d="M0 0 C0.99 0.33 1.98 0.66 3 1 C3.73046875 2.84765625 3.73046875 2.84765625 4.1875 5.0625 C4.34605469 5.79597656 4.50460938 6.52945313 4.66796875 7.28515625 C4.83232422 8.13400391 4.83232422 8.13400391 5 9 C4.01 8.67 3.02 8.34 2 8 C0.5522078 5.10441559 0 3.25811062 0 0 Z " fill="#E7F6EB" transform="translate(165,117)"/>
<path d="M0 0 C2.29633824 3.44450737 2.54016485 5.93812283 3 10 C2.34 10 1.68 10 1 10 C-0.83691257 6.21812119 -1.15837626 4.05431692 0 0 Z " fill="#E5F6E9" transform="translate(149,69)"/>
<path d="M0 0 C2.35953094 2.35953094 2.49141413 3.77895617 3 7 C2.01 7.33 1.02 7.66 0 8 C-1.125 2.25 -1.125 2.25 0 0 Z " fill="#D4F0DB" transform="translate(74,98)"/>
</svg>
